<?xml version="1.0" standalone="no"?>
<!DOCTYPE svg PUBLIC "-//W3C//DTD SVG 1.1//EN" "http://www.w3.org/Graphics/SVG/1.1/DTD/svg11.dtd" >
<svg>
<metadata>
Created by FontForge 20090914 at Tue Sep 15 10:12:04 2015
 By www-data
Cheri &#194;&#169;2001, Font&#226;&#128;&#162;a&#226;&#128;&#162;licious Fonts.
</metadata>
<defs>
<font id="CheriLiney" horiz-adv-x="570" >
  <font-face 
    font-family="Cheri Liney"
    font-weight="400"
    font-stretch="normal"
    units-per-em="1000"
    panose-1="0 0 4 0 0 0 0 0 0 0"
    ascent="800"
    descent="-200"
    x-height="726"
    cap-height="746"
    bbox="-51.8451 -371.999 1043 924"
    underline-thickness="20"
    underline-position="-123"
    unicode-range="U+0020-U+00E8"
  />
<missing-glyph horiz-adv-x="500" 
d="M63 0v800h375v-800h-375zM125 63h250v675h-250v-675z" />
    <glyph glyph-name=".notdef" horiz-adv-x="500" 
d="M63 0v800h375v-800h-375zM125 63h250v675h-250v-675z" />
    <glyph glyph-name="space" unicode=" " horiz-adv-x="302" 
 />
    <glyph glyph-name="exclam" unicode="!" horiz-adv-x="337" 
d="M390 255c0 -7.33301 -1 -13.998 -3 -19.998c19.333 -24 29 -51.333 29 -82c0 -36.667 -12.667 -73.834 -38 -111.501s-58.666 -69.834 -99.999 -96.501c-8.66699 -5.33301 -19.334 -8 -32.001 -8c-40.667 0 -83.334 21.667 -128.001 65c-48 46 -72 94.333 -72 145
c0 25.333 6.66699 49 20 71c-20.667 39.333 -31 114.333 -31 225c0 25.333 1 73 3 143c2 56.667 2.33301 97.667 1 123c-2 58 66 87 204 87c19.333 0 42 -0.666992 68 -2c58.667 4.66699 88 -70 88 -224c0 -32 -1.66699 -86 -5 -162
c-3.33301 -70 -4.66602 -121 -3.99902 -153zM325 254.002l-9 475l-212 -17l19 -469zM320 209.002c-10 8.66699 -20.333 13 -31 13c-22 0 -40.333 -16.667 -55 -50c-20.667 26.667 -42 40 -64 40c-15.333 0 -29.333 -6.33301 -42 -19c-9.33301 -18 -14 -36 -14 -54
c0 -56 43 -102.333 129 -139c70 44.667 105 94 105 148c0 26.667 -9.33301 47 -28 61z" />
    <glyph glyph-name="quotedbl" unicode="&#x22;" 
d="M523 476c28.667 -26 43.001 -59 43.001 -99c0 -62.667 -33.333 -123.667 -100 -183l1 -1c0 -10.667 -3.83301 -19.667 -11.5 -27s-16.834 -11 -27.501 -11c-3.33301 0 -6.33301 0.333008 -9 1c-24 -17.333 -50.667 -33.666 -80 -48.999h-1
c-75.333 39.333 -133 84.666 -173 135.999c-35.333 45.333 -53 90 -53 134c0 40.667 14.333 74 43 100c24 20 50.667 30 80 30c36 0 70.667 -16.667 104 -50c33.333 32.667 68 49 104 49c29.333 0 56 -10 80 -30zM445.001 308c-2.66699 63.333 -24 92.335 -64 87.002
c-38 -5.33301 -54.333 -31.333 -49 -78l16 -130l45 9l-11 56l50 5l-3 36l-55 -7c-4.66699 15.333 -7 28.666 -7 39.999c0 16.667 5.33301 25.667 16 27c14 2 21 -8.33301 21 -31c0 -6.66699 -0.666992 -13.334 -2 -20.001zM449.001 193.002c0 14 -7 21 -21 21
s-21 -7 -21 -21s7 -21 21 -21s21 7 21 21zM301.001 363.002c-3.33301 63.333 -24.667 92.335 -64 87.002c-38 -5.33301 -54.333 -31.333 -49 -78l15 -130l45 9l-10 56l50 4l-3 37l-56 -7c-4.66699 15.333 -7 28.666 -7 39.999c0 16.667 5.66699 25.667 17 27
c14 1.33301 21 -9 21 -31c0 -6.66699 -0.666992 -13.334 -2 -20.001zM316 249.004c0 14 -7 21 -21 21s-21 -7 -21 -21s7 -21 21 -21s21 7 21 21z" />
    <glyph glyph-name="numbersign" unicode="#" horiz-adv-x="629" 
d="M573 498c36.667 -33.333 55.0039 -75.6689 55.0039 -127.002c0 -72 -34.333 -136 -103 -192c-2.66699 -15.333 -10.334 -28.166 -23.001 -38.499s-27.334 -15.5 -44.001 -15.5c-20.667 -14.667 -48 -30.667 -82 -48h-15c-80.667 42 -143.334 91 -188.001 147
c-41.333 52.667 -62 104.334 -62 155.001c0 47.333 18 87.333 54 120c30 26 63.333 39 100 39c36 0 70.667 -13.667 104 -41c33.333 26.667 67.666 40 102.999 40c37.333 0 71 -13 101 -39zM553.004 475.997c-24 20 -50.668 30 -80.001 30c-36 0 -70.667 -16.333 -104 -49
c-33.333 33.333 -68 50 -104 50c-29.333 0 -56 -10 -80 -30c-28.667 -26 -43 -59.333 -43 -100c0 -44 17.667 -88.667 53 -134c40 -51.333 97.667 -96.666 173 -135.999h1c29.333 15.333 56 31.666 80 48.999c2.66699 -0.666992 5.66699 -1 9 -1
c10.667 0 19.834 3.66699 27.501 11s11.5 16.333 11.5 27l-1 1c66.667 59.333 100 120.333 100 183c0 40 -14.333 73 -43 99zM475.003 307.997l-43 -6.00195c1.33301 6.66699 2 13.334 2 20.001c0 22.667 -7 33 -21 31c-10.667 -1.33301 -16 -10.333 -16 -27
c0 -11.333 2.33301 -24.666 7 -39.999l55 7l3 -36l-50 -5l11 -56l-45 -9l-16 130c-5.33301 46.667 11 72.667 49 78c40 5.33301 61.333 -23.667 64 -87zM479.003 192.995c0 -14 -7 -21 -21 -21s-21 7 -21 21s7 21 21 21s21 -7 21 -21zM331.003 362.995l-42.999 -6.00195
c1.33301 6.66699 2 13.334 2 20.001c0 22 -7 32.333 -21 31c-11.333 -1.33301 -17 -10.333 -17 -27c0 -11.333 2.33301 -24.666 7 -39.999l56 7l3 -37l-50 -4l10 -56l-45 -9l-15 130c-5.33301 46.667 11 72.667 49 78c39.333 4.66699 60.666 -24.333 63.999 -87z
M346.004 248.993c0 -14 -7 -21 -21 -21s-21 7 -21 21s7 21 21 21s21 -7 21 -21z" />
    <glyph glyph-name="dollar" unicode="$" 
d="M523 476c28.667 -26 43.001 -59 43.001 -99c0 -62.667 -33.333 -123.667 -100 -183l1 -1c0 -10.667 -3.83301 -19.667 -11.5 -27s-16.834 -11 -27.501 -11c-3.33301 0 -6.33301 0.333008 -9 1c-24 -17.333 -50.667 -33.666 -80 -48.999h-1
c-75.333 39.333 -133 84.666 -173 135.999c-35.333 45.333 -53 90 -53 134c0 40.667 14.333 74 43 100c24 20 50.667 30 80 30c36 0 70.667 -16.667 104 -50c33.333 32.667 68 49 104 49c29.333 0 56 -10 80 -30zM445.001 308c-2.66699 63.333 -24 92.335 -64 87.002
c-38 -5.33301 -54.333 -31.333 -49 -78l16 -130l45 9l-11 56l50 5l-3 36l-55 -7c-4.66699 15.333 -7 28.666 -7 39.999c0 16.667 5.33301 25.667 16 27c14 2 21 -8.33301 21 -31c0 -6.66699 -0.666992 -13.334 -2 -20.001zM449.001 193.002c0 14 -7 21 -21 21
s-21 -7 -21 -21s7 -21 21 -21s21 7 21 21zM301.001 363.002c-3.33301 63.333 -24.667 92.335 -64 87.002c-38 -5.33301 -54.333 -31.333 -49 -78l15 -130l45 9l-10 56l50 4l-3 37l-56 -7c-4.66699 15.333 -7 28.666 -7 39.999c0 16.667 5.66699 25.667 17 27
c14 1.33301 21 -9 21 -31c0 -6.66699 -0.666992 -13.334 -2 -20.001zM316 249.004c0 14 -7 21 -21 21s-21 -7 -21 -21s7 -21 21 -21s21 7 21 21z" />
    <glyph glyph-name="percent" unicode="%" horiz-adv-x="629" 
d="M573 498c36.667 -33.333 55.0039 -75.6689 55.0039 -127.002c0 -72 -34.333 -136 -103 -192c-2.66699 -15.333 -10.334 -28.166 -23.001 -38.499s-27.334 -15.5 -44.001 -15.5c-20.667 -14.667 -48 -30.667 -82 -48h-15c-80.667 42 -143.334 91 -188.001 147
c-41.333 52.667 -62 104.334 -62 155.001c0 47.333 18 87.333 54 120c30 26 63.333 39 100 39c36 0 70.667 -13.667 104 -41c33.333 26.667 67.666 40 102.999 40c37.333 0 71 -13 101 -39zM553.004 475.997c-24 20 -50.668 30 -80.001 30c-36 0 -70.667 -16.333 -104 -49
c-33.333 33.333 -68 50 -104 50c-29.333 0 -56 -10 -80 -30c-28.667 -26 -43 -59.333 -43 -100c0 -44 17.667 -88.667 53 -134c40 -51.333 97.667 -96.666 173 -135.999h1c29.333 15.333 56 31.666 80 48.999c2.66699 -0.666992 5.66699 -1 9 -1
c10.667 0 19.834 3.66699 27.501 11s11.5 16.333 11.5 27l-1 1c66.667 59.333 100 120.333 100 183c0 40 -14.333 73 -43 99zM475.003 307.997l-43 -6.00195c1.33301 6.66699 2 13.334 2 20.001c0 22.667 -7 33 -21 31c-10.667 -1.33301 -16 -10.333 -16 -27
c0 -11.333 2.33301 -24.666 7 -39.999l55 7l3 -36l-50 -5l11 -56l-45 -9l-16 130c-5.33301 46.667 11 72.667 49 78c40 5.33301 61.333 -23.667 64 -87zM479.003 192.995c0 -14 -7 -21 -21 -21s-21 7 -21 21s7 21 21 21s21 -7 21 -21zM331.003 362.995l-42.999 -6.00195
c1.33301 6.66699 2 13.334 2 20.001c0 22 -7 32.333 -21 31c-11.333 -1.33301 -17 -10.333 -17 -27c0 -11.333 2.33301 -24.666 7 -39.999l56 7l3 -37l-50 -4l10 -56l-45 -9l-15 130c-5.33301 46.667 11 72.667 49 78c39.333 4.66699 60.666 -24.333 63.999 -87z
M346.004 248.993c0 -14 -7 -21 -21 -21s-21 7 -21 21s7 21 21 21s21 -7 21 -21z" />
    <glyph glyph-name="ampersand" unicode="&#x26;" 
d="M523 476c28.667 -26 43.001 -59 43.001 -99c0 -62.667 -33.333 -123.667 -100 -183l1 -1c0 -10.667 -3.83301 -19.667 -11.5 -27s-16.834 -11 -27.501 -11c-3.33301 0 -6.33301 0.333008 -9 1c-24 -17.333 -50.667 -33.666 -80 -48.999h-1
c-75.333 39.333 -133 84.666 -173 135.999c-35.333 45.333 -53 90 -53 134c0 40.667 14.333 74 43 100c24 20 50.667 30 80 30c36 0 70.667 -16.667 104 -50c33.333 32.667 68 49 104 49c29.333 0 56 -10 80 -30zM445.001 308c-2.66699 63.333 -24 92.335 -64 87.002
c-38 -5.33301 -54.333 -31.333 -49 -78l16 -130l45 9l-11 56l50 5l-3 36l-55 -7c-4.66699 15.333 -7 28.666 -7 39.999c0 16.667 5.33301 25.667 16 27c14 2 21 -8.33301 21 -31c0 -6.66699 -0.666992 -13.334 -2 -20.001zM449.001 193.002c0 14 -7 21 -21 21
s-21 -7 -21 -21s7 -21 21 -21s21 7 21 21zM301.001 363.002c-3.33301 63.333 -24.667 92.335 -64 87.002c-38 -5.33301 -54.333 -31.333 -49 -78l15 -130l45 9l-10 56l50 4l-3 37l-56 -7c-4.66699 15.333 -7 28.666 -7 39.999c0 16.667 5.66699 25.667 17 27
c14 1.33301 21 -9 21 -31c0 -6.66699 -0.666992 -13.334 -2 -20.001zM316 249.004c0 14 -7 21 -21 21s-21 -7 -21 -21s7 -21 21 -21s21 7 21 21z" />
    <glyph glyph-name="quotesingle" unicode="'" horiz-adv-x="320" 
d="M358 694c35.333 -33.333 53 -69.666 53 -108.999c0 -36.667 -15 -73.334 -45 -110.001c-28 -33.333 -64.333 -63 -109 -89c-8 -4 -17.333 -6 -28 -6c-33.333 0 -70 17.5 -110 52.5s-66 74.833 -78 119.5c-14 51.333 -3 96.333 33 135c2 2.66699 8.33301 8 19 16
c21.333 13.333 44 20 68 20c20.667 0 40 -5 58 -15c18 12 38 18 60 18c30.667 0 57 -10.667 79 -32zM313 648c-10 9.33301 -21 14 -33 14c-20.667 0 -39 -15.667 -55 -47c-20 28.667 -41.333 43 -64 43c-15.333 0 -29 -5.33301 -41 -16
c-11.333 -19.333 -17 -38.666 -17 -57.999c0 -54 40.667 -101 122 -141c79.333 45.333 119 92.333 119 141c0 23.333 -10.333 44.666 -31 63.999z" />
    <glyph glyph-name="parenleft" unicode="(" horiz-adv-x="629" 
d="M573 498c36.667 -33.333 55.0039 -75.6689 55.0039 -127.002c0 -72 -34.333 -136 -103 -192c-2.66699 -15.333 -10.334 -28.166 -23.001 -38.499s-27.334 -15.5 -44.001 -15.5c-20.667 -14.667 -48 -30.667 -82 -48h-15c-80.667 42 -143.334 91 -188.001 147
c-41.333 52.667 -62 104.334 -62 155.001c0 47.333 18 87.333 54 120c30 26 63.333 39 100 39c36 0 70.667 -13.667 104 -41c33.333 26.667 67.666 40 102.999 40c37.333 0 71 -13 101 -39zM553.004 475.997c-24 20 -50.668 30 -80.001 30c-36 0 -70.667 -16.333 -104 -49
c-33.333 33.333 -68 50 -104 50c-29.333 0 -56 -10 -80 -30c-28.667 -26 -43 -59.333 -43 -100c0 -44 17.667 -88.667 53 -134c40 -51.333 97.667 -96.666 173 -135.999h1c29.333 15.333 56 31.666 80 48.999c2.66699 -0.666992 5.66699 -1 9 -1
c10.667 0 19.834 3.66699 27.501 11s11.5 16.333 11.5 27l-1 1c66.667 59.333 100 120.333 100 183c0 40 -14.333 73 -43 99zM475.003 307.997l-43 -6.00195c1.33301 6.66699 2 13.334 2 20.001c0 22.667 -7 33 -21 31c-10.667 -1.33301 -16 -10.333 -16 -27
c0 -11.333 2.33301 -24.666 7 -39.999l55 7l3 -36l-50 -5l11 -56l-45 -9l-16 130c-5.33301 46.667 11 72.667 49 78c40 5.33301 61.333 -23.667 64 -87zM479.003 192.995c0 -14 -7 -21 -21 -21s-21 7 -21 21s7 21 21 21s21 -7 21 -21zM331.003 362.995l-42.999 -6.00195
c1.33301 6.66699 2 13.334 2 20.001c0 22 -7 32.333 -21 31c-11.333 -1.33301 -17 -10.333 -17 -27c0 -11.333 2.33301 -24.666 7 -39.999l56 7l3 -37l-50 -4l10 -56l-45 -9l-15 130c-5.33301 46.667 11 72.667 49 78c39.333 4.66699 60.666 -24.333 63.999 -87z
M346.004 248.993c0 -14 -7 -21 -21 -21s-21 7 -21 21s7 21 21 21s21 -7 21 -21z" />
    <glyph glyph-name="parenright" unicode=")" 
d="M523 476c28.667 -26 43.001 -59 43.001 -99c0 -62.667 -33.333 -123.667 -100 -183l1 -1c0 -10.667 -3.83301 -19.667 -11.5 -27s-16.834 -11 -27.501 -11c-3.33301 0 -6.33301 0.333008 -9 1c-24 -17.333 -50.667 -33.666 -80 -48.999h-1
c-75.333 39.333 -133 84.666 -173 135.999c-35.333 45.333 -53 90 -53 134c0 40.667 14.333 74 43 100c24 20 50.667 30 80 30c36 0 70.667 -16.667 104 -50c33.333 32.667 68 49 104 49c29.333 0 56 -10 80 -30zM445.001 308c-2.66699 63.333 -24 92.335 -64 87.002
c-38 -5.33301 -54.333 -31.333 -49 -78l16 -130l45 9l-11 56l50 5l-3 36l-55 -7c-4.66699 15.333 -7 28.666 -7 39.999c0 16.667 5.33301 25.667 16 27c14 2 21 -8.33301 21 -31c0 -6.66699 -0.666992 -13.334 -2 -20.001zM449.001 193.002c0 14 -7 21 -21 21
s-21 -7 -21 -21s7 -21 21 -21s21 7 21 21zM301.001 363.002c-3.33301 63.333 -24.667 92.335 -64 87.002c-38 -5.33301 -54.333 -31.333 -49 -78l15 -130l45 9l-10 56l50 4l-3 37l-56 -7c-4.66699 15.333 -7 28.666 -7 39.999c0 16.667 5.66699 25.667 17 27
c14 1.33301 21 -9 21 -31c0 -6.66699 -0.666992 -13.334 -2 -20.001zM316 249.004c0 14 -7 21 -21 21s-21 -7 -21 -21s7 -21 21 -21s21 7 21 21z" />
    <glyph glyph-name="asterisk" unicode="*" horiz-adv-x="629" 
d="M573 498c36.667 -33.333 55.0039 -75.6689 55.0039 -127.002c0 -72 -34.333 -136 -103 -192c-2.66699 -15.333 -10.334 -28.166 -23.001 -38.499s-27.334 -15.5 -44.001 -15.5c-20.667 -14.667 -48 -30.667 -82 -48h-15c-80.667 42 -143.334 91 -188.001 147
c-41.333 52.667 -62 104.334 -62 155.001c0 47.333 18 87.333 54 120c30 26 63.333 39 100 39c36 0 70.667 -13.667 104 -41c33.333 26.667 67.666 40 102.999 40c37.333 0 71 -13 101 -39zM553.004 475.997c-24 20 -50.668 30 -80.001 30c-36 0 -70.667 -16.333 -104 -49
c-33.333 33.333 -68 50 -104 50c-29.333 0 -56 -10 -80 -30c-28.667 -26 -43 -59.333 -43 -100c0 -44 17.667 -88.667 53 -134c40 -51.333 97.667 -96.666 173 -135.999h1c29.333 15.333 56 31.666 80 48.999c2.66699 -0.666992 5.66699 -1 9 -1
c10.667 0 19.834 3.66699 27.501 11s11.5 16.333 11.5 27l-1 1c66.667 59.333 100 120.333 100 183c0 40 -14.333 73 -43 99zM475.003 307.997l-43 -6.00195c1.33301 6.66699 2 13.334 2 20.001c0 22.667 -7 33 -21 31c-10.667 -1.33301 -16 -10.333 -16 -27
c0 -11.333 2.33301 -24.666 7 -39.999l55 7l3 -36l-50 -5l11 -56l-45 -9l-16 130c-5.33301 46.667 11 72.667 49 78c40 5.33301 61.333 -23.667 64 -87zM479.003 192.995c0 -14 -7 -21 -21 -21s-21 7 -21 21s7 21 21 21s21 -7 21 -21zM331.003 362.995l-42.999 -6.00195
c1.33301 6.66699 2 13.334 2 20.001c0 22 -7 32.333 -21 31c-11.333 -1.33301 -17 -10.333 -17 -27c0 -11.333 2.33301 -24.666 7 -39.999l56 7l3 -37l-50 -4l10 -56l-45 -9l-15 130c-5.33301 46.667 11 72.667 49 78c39.333 4.66699 60.666 -24.333 63.999 -87z
M346.004 248.993c0 -14 -7 -21 -21 -21s-21 7 -21 21s7 21 21 21s21 -7 21 -21z" />
    <glyph glyph-name="plus" unicode="+" 
d="M523 476c28.667 -26 43.001 -59 43.001 -99c0 -62.667 -33.333 -123.667 -100 -183l1 -1c0 -10.667 -3.83301 -19.667 -11.5 -27s-16.834 -11 -27.501 -11c-3.33301 0 -6.33301 0.333008 -9 1c-24 -17.333 -50.667 -33.666 -80 -48.999h-1
c-75.333 39.333 -133 84.666 -173 135.999c-35.333 45.333 -53 90 -53 134c0 40.667 14.333 74 43 100c24 20 50.667 30 80 30c36 0 70.667 -16.667 104 -50c33.333 32.667 68 49 104 49c29.333 0 56 -10 80 -30zM445.001 308c-2.66699 63.333 -24 92.335 -64 87.002
c-38 -5.33301 -54.333 -31.333 -49 -78l16 -130l45 9l-11 56l50 5l-3 36l-55 -7c-4.66699 15.333 -7 28.666 -7 39.999c0 16.667 5.33301 25.667 16 27c14 2 21 -8.33301 21 -31c0 -6.66699 -0.666992 -13.334 -2 -20.001zM449.001 193.002c0 14 -7 21 -21 21
s-21 -7 -21 -21s7 -21 21 -21s21 7 21 21zM301.001 363.002c-3.33301 63.333 -24.667 92.335 -64 87.002c-38 -5.33301 -54.333 -31.333 -49 -78l15 -130l45 9l-10 56l50 4l-3 37l-56 -7c-4.66699 15.333 -7 28.666 -7 39.999c0 16.667 5.66699 25.667 17 27
c14 1.33301 21 -9 21 -31c0 -6.66699 -0.666992 -13.334 -2 -20.001zM316 249.004c0 14 -7 21 -21 21s-21 -7 -21 -21s7 -21 21 -21s21 7 21 21z" />
    <glyph glyph-name="comma" unicode="," horiz-adv-x="343" 
d="M362 259c36 -28 54 -63.332 54 -105.999c0 -36.667 -12.667 -73.834 -38 -111.501s-58.666 -69.834 -99.999 -96.501c-8.66699 -5.33301 -19.334 -8 -32.001 -8c-33.333 0 -70 16.333 -110 49c-42 34 -69.667 72.333 -83 115c-16 50 -7.33301 95 26 135
c2 2.66699 8.33301 8.33398 19 17.001c22 16 46.333 24 73 24c18 0 35.667 -4.33301 53 -13c18.667 15.333 40.667 23 66 23c28.667 0 52.667 -9.33301 72 -28zM320 209.001c-10 8.66699 -20.333 13 -31 13c-22 0 -40.333 -16.667 -55 -50c-20.667 26.667 -42 40 -64 40
c-15.333 0 -29.333 -6.33301 -42 -19c-9.33301 -18 -14 -36 -14 -54c0 -56 43 -102.333 129 -139c70 44.667 105 94 105 148c0 26.667 -9.33301 47 -28 61z" />
    <glyph glyph-name="hyphen" unicode="-" horiz-adv-x="320" 
d="M356 504c27.333 -33.333 41.001 -67.001 41.001 -101.001c0 -39.333 -17.333 -77 -52 -113c-31.333 -32.667 -72 -60 -122 -82c-6.66699 -2.66699 -13.667 -4 -21 -4c-36.667 0 -75.334 23 -116.001 69c-42 48.667 -63 98 -63 148c0 41.333 16.333 76.333 49 105
c2.66699 2.66699 9.66699 7.33398 21 14.001c18 9.33301 37 14 57 14c24.667 0 47.667 -7.33301 69 -22c15.333 8 32 12 50 12c34.667 0 63.667 -13.333 87 -40zM306.001 461.999c-10.667 12 -22.668 17.999 -36.001 17.999c-19.333 0 -37.666 -13.667 -54.999 -41
c-18.667 33.333 -40.334 50 -65.001 50c-13.333 0 -25.666 -4.33301 -36.999 -13c-16 -21.333 -24 -43 -24 -65c0 -51.333 36 -99 108 -143c88.667 38.667 133 83.667 133 135c0 20.667 -8 40.334 -24 59.001z" />
    <glyph glyph-name="hyphen" unicode="&#x2010;" horiz-adv-x="320" 
d="M356 504c27.333 -33.333 41.001 -67.001 41.001 -101.001c0 -39.333 -17.333 -77 -52 -113c-31.333 -32.667 -72 -60 -122 -82c-6.66699 -2.66699 -13.667 -4 -21 -4c-36.667 0 -75.334 23 -116.001 69c-42 48.667 -63 98 -63 148c0 41.333 16.333 76.333 49 105
c2.66699 2.66699 9.66699 7.33398 21 14.001c18 9.33301 37 14 57 14c24.667 0 47.667 -7.33301 69 -22c15.333 8 32 12 50 12c34.667 0 63.667 -13.333 87 -40zM306.001 461.999c-10.667 12 -22.668 17.999 -36.001 17.999c-19.333 0 -37.666 -13.667 -54.999 -41
c-18.667 33.333 -40.334 50 -65.001 50c-13.333 0 -25.666 -4.33301 -36.999 -13c-16 -21.333 -24 -43 -24 -65c0 -51.333 36 -99 108 -143c88.667 38.667 133 83.667 133 135c0 20.667 -8 40.334 -24 59.001z" />
    <glyph glyph-name="period" unicode="." horiz-adv-x="343" 
d="M362 259c36 -28 54 -63.332 54 -105.999c0 -36.667 -12.667 -73.834 -38 -111.501s-58.666 -69.834 -99.999 -96.501c-8.66699 -5.33301 -19.334 -8 -32.001 -8c-33.333 0 -70 16.333 -110 49c-42 34 -69.667 72.333 -83 115c-16 50 -7.33301 95 26 135
c2 2.66699 8.33301 8.33398 19 17.001c22 16 46.333 24 73 24c18 0 35.667 -4.33301 53 -13c18.667 15.333 40.667 23 66 23c28.667 0 52.667 -9.33301 72 -28zM320 209.001c-10 8.66699 -20.333 13 -31 13c-22 0 -40.333 -16.667 -55 -50c-20.667 26.667 -42 40 -64 40
c-15.333 0 -29.333 -6.33301 -42 -19c-9.33301 -18 -14 -36 -14 -54c0 -56 43 -102.333 129 -139c70 44.667 105 94 105 148c0 26.667 -9.33301 47 -28 61z" />
    <glyph glyph-name="slash" unicode="/" horiz-adv-x="629" 
d="M573 498c36.667 -33.333 55.0039 -75.6689 55.0039 -127.002c0 -72 -34.333 -136 -103 -192c-2.66699 -15.333 -10.334 -28.166 -23.001 -38.499s-27.334 -15.5 -44.001 -15.5c-20.667 -14.667 -48 -30.667 -82 -48h-15c-80.667 42 -143.334 91 -188.001 147
c-41.333 52.667 -62 104.334 -62 155.001c0 47.333 18 87.333 54 120c30 26 63.333 39 100 39c36 0 70.667 -13.667 104 -41c33.333 26.667 67.666 40 102.999 40c37.333 0 71 -13 101 -39zM553.004 475.997c-24 20 -50.668 30 -80.001 30c-36 0 -70.667 -16.333 -104 -49
c-33.333 33.333 -68 50 -104 50c-29.333 0 -56 -10 -80 -30c-28.667 -26 -43 -59.333 -43 -100c0 -44 17.667 -88.667 53 -134c40 -51.333 97.667 -96.666 173 -135.999h1c29.333 15.333 56 31.666 80 48.999c2.66699 -0.666992 5.66699 -1 9 -1
c10.667 0 19.834 3.66699 27.501 11s11.5 16.333 11.5 27l-1 1c66.667 59.333 100 120.333 100 183c0 40 -14.333 73 -43 99zM475.003 307.997l-43 -6.00195c1.33301 6.66699 2 13.334 2 20.001c0 22.667 -7 33 -21 31c-10.667 -1.33301 -16 -10.333 -16 -27
c0 -11.333 2.33301 -24.666 7 -39.999l55 7l3 -36l-50 -5l11 -56l-45 -9l-16 130c-5.33301 46.667 11 72.667 49 78c40 5.33301 61.333 -23.667 64 -87zM479.003 192.995c0 -14 -7 -21 -21 -21s-21 7 -21 21s7 21 21 21s21 -7 21 -21zM331.003 362.995l-42.999 -6.00195
c1.33301 6.66699 2 13.334 2 20.001c0 22 -7 32.333 -21 31c-11.333 -1.33301 -17 -10.333 -17 -27c0 -11.333 2.33301 -24.666 7 -39.999l56 7l3 -37l-50 -4l10 -56l-45 -9l-15 130c-5.33301 46.667 11 72.667 49 78c39.333 4.66699 60.666 -24.333 63.999 -87z
M346.004 248.993c0 -14 -7 -21 -21 -21s-21 7 -21 21s7 21 21 21s21 -7 21 -21z" />
    <glyph glyph-name="zero" unicode="0" horiz-adv-x="591" 
d="M675 302c0 -266.667 -117.665 -396.333 -352.998 -389c-120.667 4 -202.334 47.333 -245.001 130c-30 58.667 -45 153 -45 283c0 106 31.833 199.167 95.5 279.5s140.167 120.5 229.5 120.5c91.333 0 167.666 -42.333 228.999 -127c59.333 -82 89 -181 89 -297z
M610.002 302.001c0 103.333 -25.666 189.667 -76.999 259c-48.667 66.667 -107.334 100 -176.001 100c-68 0 -128 -32.333 -180 -97c-53.333 -66.667 -80 -146 -80 -238c0 -115.333 10.333 -195.333 31 -240c32 -68.667 97.333 -104.667 196 -108
c108 -3.33301 184.667 26.334 230 89.001c37.333 51.333 56 129.666 56 234.999zM465.003 319.002c3.33301 -55.333 -7.5 -100.833 -32.5 -136.5s-56.5 -52.834 -94.5 -51.501c-35.333 1.33301 -59.333 16 -72 44s-19 76.333 -19 145
c0.666992 62.667 16.667 110.334 48 143.001c18.667 19.333 40 31.666 64 36.999c22 -0.666992 43.667 -16.667 65 -48c24 -35.333 37.667 -79.666 41 -132.999zM400.003 315.002c-3.33301 54.667 -17.667 93.334 -43 116.001c-29.333 -22.667 -44.333 -60 -45 -112
c0 -58.667 4.33301 -97.334 13 -116.001c4 -2 9.33301 -4.33301 16 -7c13.333 0 26 7.66699 38 23c16 22 23 54 21 96z" />
    <glyph glyph-name="one" unicode="1" horiz-adv-x="295" 
d="M370 672l-20.998 -683.999c-0.666992 -24 -16.334 -43.333 -47.001 -58c-27.333 -12.667 -60.333 -19 -99 -19c-36 0 -66.333 6 -91 18c-27.333 13.333 -41.333 31.666 -42 54.999l-21 607c-0.666992 28 28.666 59.5 87.999 94.5s113 52.5 161 52.5
c49.333 0 73.333 -22 72 -66zM305.002 674.001l-191 -81l21 -607l149 4z" />
    <glyph glyph-name="two" unicode="2" 
d="M577 -62c-6.66699 -46 -66.9971 -68.999 -180.997 -68.999c-87.333 0 -167 13.333 -239 40c-79.333 28.667 -115.333 63 -108 103c12 66 33.333 124.333 64 175c24 41.333 58 83 102 125c-46.667 13.333 -80.334 25 -101.001 35c-44 21.333 -66 46.333 -66 75
c0 68.667 39.333 141.834 118 219.501s153 116.5 223 116.5c51.333 0 99.666 -19 144.999 -57c35.333 -30.667 63.166 -67 83.499 -109s30.5 -84.667 30.5 -128c0 -94.667 -42.667 -164.334 -128 -209.001c-29.333 -15.333 -55.666 -34.333 -78.999 -57
c67.333 -10 110.666 -19.667 129.999 -29c22.667 -10.667 34 -29.334 34 -56.001c0 -13.333 -3 -36 -9 -68c-10 -53.333 -16.333 -89 -19 -107zM386.003 474.001c-6 8.66699 -11.333 13 -16 13c-8 0 -18.667 -21 -32 -63c13.333 11.333 29.333 28 48 50zM539.003 118.001
l-214.003 31.999c10 20 22.333 39 37 57c34.667 44 77.334 79.333 128.001 106c62 32.667 93 84.334 93 155.001s-30.333 131.667 -91 183c-30 25.333 -63.667 38 -101 38c-59.333 0 -117.166 -28 -173.499 -84s-91.166 -117.333 -104.499 -184l139 -52
c30 127.333 69 191 117 191c16 0 32 -7.66699 48 -23c23.333 -22 35 -43 35 -63c0 -25.333 -25.333 -59.333 -76 -102c-76 -64.667 -126.333 -111.334 -151 -140.001c-58.667 -69.333 -96 -146.666 -112 -231.999l400 -52z" />
    <glyph glyph-name="three" unicode="3" horiz-adv-x="500" 
d="M565 148c0 -121.333 -66.667 -203.334 -200 -246.001c-54 -17.333 -102.667 -26 -146 -26c-62.667 0 -93.667 22 -93 66c0 4 -0.333008 14.333 -1 31s-1 30.667 -1 42c0 84 21.333 126 64 126c5.33301 0 13 -1 23 -3s17.667 -3 23 -3c16.667 0 25 4.33301 25 13
s-7.66699 16.334 -23 23.001c-18.667 8.66699 -44 14 -76 16c-42.667 2.66699 -64 37 -64 103c0 45.333 10.333 84 31 116c-56 19.333 -93 34.333 -111 45c-24.667 14.667 -37 32 -37 52c0 28 33 84 99 168c46 58 107 87 183 87c76.667 0 146 -26 208 -78
c64.667 -54.667 97 -117.667 97 -189c0 -54 -20.333 -105.667 -61 -155c40 -44 60 -106.667 60 -188zM500 147.999c0 99.333 -32.335 159 -97.002 179c64.667 49.333 97 104.333 97 165c0 14.667 -2 29.334 -6 44.001c-12.667 47.333 -41.667 85.333 -87 114
c-41.333 26.667 -87.333 40 -138 40c-62 0 -108.667 -19.667 -140 -59c-53.333 -67.333 -82 -109.666 -86 -126.999l147 -51c27.333 60.667 55.333 91 84 91c8 0 15.667 -2.66699 23 -8c16 -11.333 24 -28.333 24 -51c0 -29.333 -12 -55 -36 -77
c-27.333 -24.667 -61.666 -35 -102.999 -31l-18 -125c106 -10.667 159 -42 159 -94c0 -4.66699 -0.333008 -9.33398 -1 -14.001c-9.33301 -48.667 -40.666 -73 -93.999 -73c-12 0 -23.333 1.33301 -34 4l-3 -134c60 1.33301 111.667 9 155 23
c102.667 33.333 154 94.666 154 183.999z" />
    <glyph glyph-name="four" unicode="4" horiz-adv-x="509" 
d="M29 595c0 64 2.66992 104 8.00293 120c7.33301 20 25.666 32 54.999 36c47.333 3.33301 94.666 6.33301 141.999 9c15.333 1.33301 28.5 -3.33398 39.5 -14.001s16.5 -23.667 16.5 -39v-17c6.66699 4 15.167 6.33301 25.5 7s20.833 1.66699 31.5 3c22 2 41 3 57 3
c66.667 0 101 -18.333 103 -55l32 -656c0.666992 -23.333 -17.5 -43.666 -54.5 -60.999s-76.167 -26 -117.5 -26c-62.667 0 -93 20 -91 60l11 180c-18 -5.33301 -35.333 -8 -52 -8c-80.667 0 -138.334 60.333 -173.001 181c-22 78.667 -33 171 -33 277zM84.0029 697
c-2 -28.667 -2.99902 -60.667 -2.99902 -96c0 -104.667 9.33301 -191 28 -259c26 -100 69.667 -150 131 -150c30.667 0 65.667 13 105 39l-16 -270l157 29l-31 656l-140 -2c11.333 -124 16 -203.333 14 -238c-0.666992 -16 -6.16699 -30.5 -16.5 -43.5
s-20.833 -19.5 -31.5 -19.5c-20 0 -32 20.667 -36 62c-6.66699 64.667 -9.33398 165.667 -8.00098 303z" />
    <glyph glyph-name="five" unicode="5" horiz-adv-x="484" 
d="M537 401c-6 -34.667 -29.999 -51.999 -71.999 -51.999c-12.667 0 -27 1.33301 -43 4c46.667 -50.667 70 -119 70 -205c0 -73.333 -17.667 -136.666 -53 -189.999c-38.667 -58.667 -90.667 -90.334 -156 -95.001c-82 -6.66699 -156.333 19 -223 77
c-58 50 -93.667 106.333 -107 169c-14 64 2.33301 100 49 108l60 16c-76.667 55.333 -112.667 137.333 -108 246c2 52 5.66699 113 11 183c2.66699 42.667 43 64 121 64c47.333 0 118.666 -8.66699 213.999 -26c123.333 -23.333 194.333 -36.333 213 -39
c38 -4.66699 57 -34.667 57 -90c0 -29.333 -5.33301 -65.333 -16 -108c-5.33301 -20.667 -11 -41.334 -17 -62.001zM505.001 597.001l-475 59.999c-2.66699 -32.667 -6.66699 -92.667 -12 -180c-2 -51.333 7.66699 -96.666 29 -135.999c28 -51.333 73 -86 135 -104
c37.333 -10.667 66.333 -28 87 -52c17.333 -21.333 26 -44 26 -68c0 -37.333 -16.667 -57.333 -50 -60c-48 2.66699 -69 44.667 -63 126l-169 -30c20.667 -102.667 71 -171 151 -205c33.333 -14.667 71.333 -21.667 114 -21c46.667 3.33301 83.667 28.333 111 75
c25.333 41.333 38 90.666 38 147.999c0 48.667 -9.66699 90.667 -29 126c-20.667 38.667 -50 62.334 -88 71.001l-35 8c-82.667 18.667 -124 54.667 -124 108c0 14.667 3.33301 28.667 10 42l312 -93z" />
    <glyph glyph-name="six" unicode="6" horiz-adv-x="543" 
d="M633 137c0 -79.333 -29.334 -144.999 -88.001 -196.999c-55.333 -48.667 -120.666 -73 -195.999 -73c-63.333 0 -119.333 19 -168 57c-54 41.333 -91.667 101.666 -113 180.999c-18.667 70 -28 146.333 -28 229c0 124.667 21.667 226 65 304
c52.667 95.333 132 143 238 143c91.333 0 164.333 -39 219 -117c45.333 -66 68 -139.333 68 -220c0 -74.667 -18.667 -116.667 -56 -126c39.333 -48.667 59 -109 59 -181zM343.999 447.001c0 19.333 -2.33301 31.334 -7 36.001s-8.66699 -1.33301 -12 -18
c-4 -20.667 -5.66699 -51.334 -5 -92.001c4 2 8.33301 3.66699 13 5c7.33301 32.667 11 55.667 11 69zM560.999 382.002c0.666992 10.667 1.00098 23 1.00098 37c0 71.333 -11.667 131.666 -35 180.999c-36.667 77.333 -98 116 -184 116
c-83.333 0 -145.333 -36.667 -186 -110c-28 -50.667 -42.667 -110.667 -44 -180l-2 -45c-0.666992 -23.333 -1 -45 -1 -65c0 -253.333 76.333 -380 229 -380c22.667 0 46.667 2.66699 72 8c104 22.667 156 86 156 190c0 28 -3.66699 54.667 -11 80
c-28.667 78 -74.334 117 -137.001 117c-44 0 -93.667 -22 -149 -66l-10 44c-3.33301 26.667 -5 54 -5 82c0 106.667 27 159.334 81 158.001c48 -1.33301 72 -34.333 72 -99c0 -26 -3.66699 -53.667 -11 -83zM436 119.002c0.666992 -28 -11.667 -47 -37 -57
c-16 -6.66699 -33 -9 -51 -7c-14.667 2 -27.334 12 -38.001 30c-10 16 -15 32.333 -15 49c0 20 9.66699 38 29 54c17.333 14.667 35 22.667 53 24c38.667 2 58.334 -29 59.001 -93zM374.999 122.002c-0.666992 8 -1.66797 14.668 -3.00098 20.001
c-3.33301 -2 -6 -3.66699 -8 -5c0.666992 -4.66699 1.33398 -10.334 2.00098 -17.001c3.33301 0 6.33301 0.666992 9 2z" />
    <glyph glyph-name="seven" unicode="7" 
d="M620 450c-73.333 -66.667 -135.331 -146.333 -185.998 -239c-57.333 -104 -85.333 -201.333 -84 -292c0.666992 -44.667 -30 -67 -92 -67c-48 0 -95.333 12.667 -142 38c-48.667 26 -71.334 53.667 -68.001 83c10 76.667 40.333 160.667 91 252
c43.333 76.667 96.666 151 159.999 223l-234 -34l-10 48c-2 14.667 -4.33301 29.667 -7 45c-4 31.333 -6 59.333 -6 84c0 82 23 123.667 69 125c4.66699 0 46.667 4.33301 126 13c75.333 8 137 12 185 12c117.333 0 180 -22 188 -66c19.333 -64 29 -116.667 29 -158
c0 -32.667 -6.33301 -55 -19 -67zM576.002 498.001l-30.001 164.999l-433 -12l7 -187l315 46c-56 -53.333 -105 -107.666 -147 -162.999c-101.333 -132.667 -159.666 -260 -174.999 -382l172 -47c2.66699 64 14 127 34 189c47.333 148 133 278.333 257 391zM55.001 462z" />
    <glyph glyph-name="eight" unicode="8" horiz-adv-x="576" 
d="M584 383c69.333 -45.333 103.998 -108.999 103.998 -190.999c0 -58.667 -18.167 -115 -54.5 -169s-83.5 -92.333 -141.5 -115c-37.333 -14 -76 -21 -116 -21c-85.333 0 -160.666 29 -225.999 87s-98 126 -98 204c0 57.333 20 111.666 60 162.999
c-40 40.667 -60 89.667 -60 147c0 46.667 14 89 42 127c29.333 40.667 69.333 68.667 120 84c44.667 13.333 92.334 19 143.001 17c70 4.66699 133 -14 189 -56s84 -93 84 -153c0 -42.667 -15.333 -84 -46 -124zM609.998 260.001
c-25.333 50.667 -71.998 84.332 -139.998 100.999c62.667 49.333 94 97.666 94 144.999c0 14.667 -3.33301 29.334 -10 44.001c-34.667 72 -100 105.667 -196 101c-49.333 0.666992 -91 -4.33301 -125 -15c-82.667 -24.667 -120.334 -74.667 -113.001 -150
c7.33301 -76.667 39.666 -120 96.999 -130c-66.667 -54.667 -100 -114 -100 -178c0 -17.333 2.66699 -34.666 8 -51.999c17.333 -58 52 -102.333 104 -133c44.667 -26 94.667 -39 150 -39c34 0 63.667 5 89 15c40 15.333 76.167 44.833 108.5 88.5s48.5 88.5 48.5 134.5
c0 24 -5 46.667 -15 68zM432 502.999c2.66699 -3.33301 4 -8.33301 4 -15c0 -15.333 -6 -30.666 -18 -45.999c-14.667 -18 -33.667 -29 -57 -33c-7.33301 -1.33301 -14.333 -2 -21 -2c-39.333 0 -65 28 -77 84c-0.666992 3.33301 -1 6.66602 -1 9.99902
c0 30.667 33.333 46 100 46c11.333 0 24 -4.66699 38 -14s24.667 -19.333 32 -30zM496 211.999c7.33301 -10 11.001 -22.333 11.001 -37c0 -44 -24.667 -73 -74 -87c-21.333 -6 -39.333 -9 -54 -9c-38 0 -66.333 24.667 -85 74c-4 11.333 -6 21.333 -6 30
c0 20 9.66699 36.333 29 49c4 2.66699 21.667 10.667 53 24c7.33301 3.33301 15.666 5 24.999 5c18 0 37 -5 57 -15s34.667 -21.333 44 -34z" />
    <glyph glyph-name="nine" unicode="9" horiz-adv-x="543" 
d="M606 555c18.667 -70 28.001 -146.334 28.001 -229.001c0 -124.667 -21.667 -226 -65 -304c-52.667 -95.333 -132 -143 -238 -143c-91.333 0 -164.333 39 -219 117c-45.333 66 -68 139.333 -68 220c0 74.667 18.667 116.667 56 126c-39.333 48.667 -59 109 -59 181
c0 79.333 29.333 145 88 197c55.333 48.667 120.666 73 195.999 73c63.333 0 119.333 -19 168 -57c54 -41.333 91.667 -101.666 113 -180.999zM561.001 233.999l1.99902 45c0.666992 23.333 1 45 1 65c0 253.333 -76.333 380 -229 380c-22.667 0 -46.667 -2.66699 -72 -8
c-104 -22.667 -156 -86 -156 -190c0 -28 3.66699 -54.667 11 -80c28.667 -78 74.334 -117 137.001 -117c44 0 93.667 22 149 66l10 -44c3.33301 -26.667 5 -54 5 -82c0 -106.667 -27 -159.334 -81 -158.001c-48 1.33301 -72 34.333 -72 99c0 26 3.66699 53.667 11 83
l-164 -15c-0.666992 -10.667 -1 -23 -1 -37c0 -71.333 11.667 -131.666 35 -180.999c36.667 -77.333 98 -116 184 -116c83.333 0 145.333 36.667 186 110c28 50.667 42.667 110.667 44 180zM354 286.999c-4 -2 -8.33301 -3.66797 -13 -5.00098
c-7.33301 -32.667 -11 -55.667 -11 -69c0 -19.333 2.33301 -31.333 7 -36s8.66699 1.33301 12 18c4 20.667 5.66699 51.334 5 92.001zM377 539.998c1.33301 -4.66699 2.00195 -9.33301 2.00195 -14c0 -20 -9.16699 -37.667 -27.5 -53s-36.5 -23.666 -54.5 -24.999
c-38.667 -2 -58.334 29 -59.001 93c-0.666992 28 11.666 47.333 36.999 58c16 6 33 8 51 6c24 -2.66699 41 -24.334 51 -65.001zM310.002 522.999c-0.666992 4.66699 -1.33301 10.333 -2 17c-3.33301 0 -6.33301 -0.666992 -9 -2c0.666992 -8 1.66699 -14.667 3 -20
c3.33301 2 6 3.66699 8 5z" />
    <glyph glyph-name="colon" unicode=":" horiz-adv-x="343" 
d="M386 532c26 -27.333 39 -57.999 39 -91.999c0 -58 -32 -111.333 -96 -160c12.667 -5.33301 23.667 -12.333 33 -21c36 -28 54 -63.333 54 -106c0 -36.667 -12.667 -73.834 -38 -111.501s-58.666 -69.834 -99.999 -96.501c-8.66699 -5.33301 -19.334 -8 -32.001 -8
c-33.333 0 -70 16.333 -110 49c-42 34 -69.667 72.333 -83 115c-16 50 -7.33301 95 26 135c2 2.66699 8.33301 8.33398 19 17.001c14 10 29.333 17 46 21c-60 52.667 -90 111 -90 175c0 41.333 16.333 76.333 49 105c2.66699 2 9.66699 6.33301 21 13
c18.667 9.33301 37.667 14 57 14c25.333 0 48.333 -7.33301 69 -22c16 8.66699 33.333 13 52 13c35.333 0 63.333 -13.333 84 -40zM337 490.001c-10.667 11.333 -22.335 17.002 -35.002 17.002c-19.333 0 -38 -13.667 -56 -41c-18 33.333 -39.667 50 -65 50
c-13.333 0 -25.666 -4.33301 -36.999 -13c-15.333 -20.667 -23 -42.334 -23 -65.001c0 -50.667 35.667 -98.334 107 -143.001c42.667 18.667 75.334 42 98.001 70c20 24 30 48.667 30 74c0 20 -6.33301 37 -19 51zM319.999 209.003c-10 8.66699 -20.333 13 -31 13
c-22 0 -40.333 -16.667 -55 -50c-20.667 26.667 -42 40 -64 40c-15.333 0 -29.333 -6.33301 -42 -19c-9.33301 -18 -14 -36 -14 -54c0 -56 43 -102.333 129 -139c70 44.667 105 94 105 148c0 26.667 -9.33301 47 -28 61z" />
    <glyph glyph-name="semicolon" unicode=";" horiz-adv-x="343" 
d="M386 532c26 -27.333 39 -57.999 39 -91.999c0 -58 -32 -111.333 -96 -160c12.667 -5.33301 23.667 -12.333 33 -21c36 -28 54 -63.333 54 -106c0 -36.667 -12.667 -73.834 -38 -111.501s-58.666 -69.834 -99.999 -96.501c-8.66699 -5.33301 -19.334 -8 -32.001 -8
c-33.333 0 -70 16.333 -110 49c-42 34 -69.667 72.333 -83 115c-16 50 -7.33301 95 26 135c2 2.66699 8.33301 8.33398 19 17.001c14 10 29.333 17 46 21c-60 52.667 -90 111 -90 175c0 41.333 16.333 76.333 49 105c2.66699 2 9.66699 6.33301 21 13
c18.667 9.33301 37.667 14 57 14c25.333 0 48.333 -7.33301 69 -22c16 8.66699 33.333 13 52 13c35.333 0 63.333 -13.333 84 -40zM337 490.001c-10.667 11.333 -22.335 17.002 -35.002 17.002c-19.333 0 -38 -13.667 -56 -41c-18 33.333 -39.667 50 -65 50
c-13.333 0 -25.666 -4.33301 -36.999 -13c-15.333 -20.667 -23 -42.334 -23 -65.001c0 -50.667 35.667 -98.334 107 -143.001c42.667 18.667 75.334 42 98.001 70c20 24 30 48.667 30 74c0 20 -6.33301 37 -19 51zM319.999 209.003c-10 8.66699 -20.333 13 -31 13
c-22 0 -40.333 -16.667 -55 -50c-20.667 26.667 -42 40 -64 40c-15.333 0 -29.333 -6.33301 -42 -19c-9.33301 -18 -14 -36 -14 -54c0 -56 43 -102.333 129 -139c70 44.667 105 94 105 148c0 26.667 -9.33301 47 -28 61z" />
    <glyph glyph-name="less" unicode="&#x3c;" 
d="M523 476c28.667 -26 43.001 -59 43.001 -99c0 -62.667 -33.333 -123.667 -100 -183l1 -1c0 -10.667 -3.83301 -19.667 -11.5 -27s-16.834 -11 -27.501 -11c-3.33301 0 -6.33301 0.333008 -9 1c-24 -17.333 -50.667 -33.666 -80 -48.999h-1
c-75.333 39.333 -133 84.666 -173 135.999c-35.333 45.333 -53 90 -53 134c0 40.667 14.333 74 43 100c24 20 50.667 30 80 30c36 0 70.667 -16.667 104 -50c33.333 32.667 68 49 104 49c29.333 0 56 -10 80 -30zM445.001 308c-2.66699 63.333 -24 92.335 -64 87.002
c-38 -5.33301 -54.333 -31.333 -49 -78l16 -130l45 9l-11 56l50 5l-3 36l-55 -7c-4.66699 15.333 -7 28.666 -7 39.999c0 16.667 5.33301 25.667 16 27c14 2 21 -8.33301 21 -31c0 -6.66699 -0.666992 -13.334 -2 -20.001zM449.001 193.002c0 14 -7 21 -21 21
s-21 -7 -21 -21s7 -21 21 -21s21 7 21 21zM301.001 363.002c-3.33301 63.333 -24.667 92.335 -64 87.002c-38 -5.33301 -54.333 -31.333 -49 -78l15 -130l45 9l-10 56l50 4l-3 37l-56 -7c-4.66699 15.333 -7 28.666 -7 39.999c0 16.667 5.66699 25.667 17 27
c14 1.33301 21 -9 21 -31c0 -6.66699 -0.666992 -13.334 -2 -20.001zM316 249.004c0 14 -7 21 -21 21s-21 -7 -21 -21s7 -21 21 -21s21 7 21 21z" />
    <glyph glyph-name="equal" unicode="=" horiz-adv-x="629" 
d="M573 498c36.667 -33.333 55.0039 -75.6689 55.0039 -127.002c0 -72 -34.333 -136 -103 -192c-2.66699 -15.333 -10.334 -28.166 -23.001 -38.499s-27.334 -15.5 -44.001 -15.5c-20.667 -14.667 -48 -30.667 -82 -48h-15c-80.667 42 -143.334 91 -188.001 147
c-41.333 52.667 -62 104.334 -62 155.001c0 47.333 18 87.333 54 120c30 26 63.333 39 100 39c36 0 70.667 -13.667 104 -41c33.333 26.667 67.666 40 102.999 40c37.333 0 71 -13 101 -39zM553.004 475.997c-24 20 -50.668 30 -80.001 30c-36 0 -70.667 -16.333 -104 -49
c-33.333 33.333 -68 50 -104 50c-29.333 0 -56 -10 -80 -30c-28.667 -26 -43 -59.333 -43 -100c0 -44 17.667 -88.667 53 -134c40 -51.333 97.667 -96.666 173 -135.999h1c29.333 15.333 56 31.666 80 48.999c2.66699 -0.666992 5.66699 -1 9 -1
c10.667 0 19.834 3.66699 27.501 11s11.5 16.333 11.5 27l-1 1c66.667 59.333 100 120.333 100 183c0 40 -14.333 73 -43 99zM475.003 307.997l-43 -6.00195c1.33301 6.66699 2 13.334 2 20.001c0 22.667 -7 33 -21 31c-10.667 -1.33301 -16 -10.333 -16 -27
c0 -11.333 2.33301 -24.666 7 -39.999l55 7l3 -36l-50 -5l11 -56l-45 -9l-16 130c-5.33301 46.667 11 72.667 49 78c40 5.33301 61.333 -23.667 64 -87zM479.003 192.995c0 -14 -7 -21 -21 -21s-21 7 -21 21s7 21 21 21s21 -7 21 -21zM331.003 362.995l-42.999 -6.00195
c1.33301 6.66699 2 13.334 2 20.001c0 22 -7 32.333 -21 31c-11.333 -1.33301 -17 -10.333 -17 -27c0 -11.333 2.33301 -24.666 7 -39.999l56 7l3 -37l-50 -4l10 -56l-45 -9l-15 130c-5.33301 46.667 11 72.667 49 78c39.333 4.66699 60.666 -24.333 63.999 -87z
M346.004 248.993c0 -14 -7 -21 -21 -21s-21 7 -21 21s7 21 21 21s21 -7 21 -21z" />
    <glyph glyph-name="greater" unicode="&#x3e;" 
d="M523 476c28.667 -26 43.001 -59 43.001 -99c0 -62.667 -33.333 -123.667 -100 -183l1 -1c0 -10.667 -3.83301 -19.667 -11.5 -27s-16.834 -11 -27.501 -11c-3.33301 0 -6.33301 0.333008 -9 1c-24 -17.333 -50.667 -33.666 -80 -48.999h-1
c-75.333 39.333 -133 84.666 -173 135.999c-35.333 45.333 -53 90 -53 134c0 40.667 14.333 74 43 100c24 20 50.667 30 80 30c36 0 70.667 -16.667 104 -50c33.333 32.667 68 49 104 49c29.333 0 56 -10 80 -30zM445.001 308c-2.66699 63.333 -24 92.335 -64 87.002
c-38 -5.33301 -54.333 -31.333 -49 -78l16 -130l45 9l-11 56l50 5l-3 36l-55 -7c-4.66699 15.333 -7 28.666 -7 39.999c0 16.667 5.33301 25.667 16 27c14 2 21 -8.33301 21 -31c0 -6.66699 -0.666992 -13.334 -2 -20.001zM449.001 193.002c0 14 -7 21 -21 21
s-21 -7 -21 -21s7 -21 21 -21s21 7 21 21zM301.001 363.002c-3.33301 63.333 -24.667 92.335 -64 87.002c-38 -5.33301 -54.333 -31.333 -49 -78l15 -130l45 9l-10 56l50 4l-3 37l-56 -7c-4.66699 15.333 -7 28.666 -7 39.999c0 16.667 5.66699 25.667 17 27
c14 1.33301 21 -9 21 -31c0 -6.66699 -0.666992 -13.334 -2 -20.001zM316 249.004c0 14 -7 21 -21 21s-21 -7 -21 -21s7 -21 21 -21s21 7 21 21z" />
    <glyph glyph-name="question" unicode="?" 
d="M651 519c0.666992 -9.33301 0.998047 -18.3389 0.998047 -27.0059c0 -65.333 -29.667 -119.666 -89 -162.999c-46 -33.333 -105.667 -57.666 -179 -72.999c0 -6 -1 -12 -3 -18c26.667 -26 40 -57.333 40 -94c0 -71.333 -47.667 -137.666 -143 -198.999
c-8 -4.66699 -18.333 -7 -31 -7c-32 0 -66.333 12.667 -103 38c-40.667 27.333 -68.667 60.333 -84 99c-19.333 46.667 -16.666 93.334 8.00098 140.001l7 11l1 1c-2 4.66699 -3 9.33398 -3 14.001c-14.667 107.333 -22 170 -22 188c0 18.667 2.66699 32.334 8 41.001
c-14 24 -23 61.333 -27 112c-0.666992 27.333 -1.66699 55 -3 83c-3.33301 32 20.334 59.333 71.001 82s111.334 34 182.001 34c92 0 170.667 -19.667 236 -59c77.333 -46 121.666 -113.667 132.999 -203zM320.998 702.994c-64.667 0 -140.334 -10.332 -227.001 -30.999
l19 -168c104.667 32 187.334 48 248.001 48c54 0 81 -13.667 81 -41c0 -46.667 -109.667 -73.334 -329 -80.001l24 -182l182 5l-3 57c52.667 7.33301 98 18 136 32c90 34.667 135 84.667 135 150c0 72 -27.667 126.333 -83 163c-46.667 31.333 -107.667 47 -183 47z
M285.998 215.995c-21.333 0 -38.667 -14.667 -52 -44c-19.333 24.667 -39.333 37 -60 37c-18 0 -34 -8 -48 -24c-9.33301 -18 -14 -35.667 -14 -53c0 -54.667 43.667 -98.667 131 -132c76 48.667 114 97 114 145c0 20.667 -8 37.667 -24 51s-31.667 20 -47 20z" />
    <glyph glyph-name="at" unicode="@" horiz-adv-x="1020" 
d="M565 603c44 -40.667 65.9961 -88.998 65.9961 -144.998c0 -58 -23.667 -116.833 -71 -176.5s-111.666 -110.834 -192.999 -153.501c-9.33301 -5.33301 -19.333 -8 -30 -8c-92 46 -163.833 99.667 -215.5 161s-77.5 121.666 -77.5 180.999c0 54.667 21.667 102 65 142
c3.33301 2.66699 12 8.66699 26 18c30.667 18.667 63.334 28 98.001 28c36.667 0 71.334 -10.333 104.001 -31c32 20 67.333 30 106 30c48.667 0 89.334 -15.333 122.001 -46zM520.996 555.002c-24 20 -50.667 30 -80 30c-36 0 -70.667 -16.333 -104 -49
c-33.333 32.667 -68 49 -104 49c-29.333 0 -56 -9.66699 -80 -29c-28.667 -26 -43 -59.333 -43 -100c0 -44.667 17.667 -89.667 53 -135c40 -50.667 97.667 -96 173 -136h1c76 40 133.667 85.333 173 136c36 45.333 54 90.333 54 135c0 40 -14.333 73 -43 99z" />
    <glyph glyph-name="A" unicode="A" horiz-adv-x="481" 
d="M582 -60c-20 -4 -79.332 -10.335 -177.999 -19.002c-28 -3.33301 -49.333 10.334 -64 41.001c-10.667 22.667 -17.667 54.334 -21 95.001l-4 70l-19 -2c-14 -98 -23 -153.333 -27 -166c-9.33301 -28 -30.333 -42 -63 -42c-9.33301 0 -64 7 -164 21
c-38.667 4.66699 -58 39.334 -58 104.001c0 74 26 191 78 351l98 293c5.33301 20 25 36.333 59 49c31.333 11.333 67 17 107 17c83.333 0 129.666 -19.333 138.999 -58l88 -253c56 -174 84 -303.333 84 -388c0 -68.667 -18.333 -106.334 -55 -113.001zM570.001 3.99805
l-168 674l-179 -8l-173 -668l160 -22l28 207l134 8l27 -209c46.667 4 103.667 10 171 18zM360.001 296.998l-112 -1l49 183z" />
    <glyph glyph-name="B" unicode="B" horiz-adv-x="505" 
d="M635 183c0 -92.667 -32.667 -162 -98 -208c-49.333 -35.333 -113 -55.333 -191 -60c-14.667 -1.33301 -31.667 -2 -51 -2c-164.667 0 -247 30 -247 90v651c0 57.333 72.667 86 218 86c18 0 33.667 -0.333008 47 -1c70 -5.33301 126.667 -25.333 170 -60
c57.333 -44.667 86 -110 86 -196c0 -36 -7.66699 -68.333 -23 -97c59.333 -49.333 89 -117 89 -203zM570 183c0 91.333 -40.999 153.666 -122.999 186.999c38 26.667 57 64.334 57 113.001c0 128 -76.667 192 -230 192c-52.667 0 -106.334 -7 -161.001 -21v-651
c66 -16.667 130 -25 192 -25c176.667 0 265 68.333 265 205zM395.001 474c-2 -47.333 -42.333 -71 -121 -71c-8.66699 0 -16.667 0.333008 -24 1l5 128c20 4.66699 39.667 7 59 7c56 0 83 -21.667 81 -65zM438.001 199c-4 -58 -54.001 -87 -150.001 -87
c-13.333 0 -25.666 0.666992 -36.999 2l4 185c10 0.666992 21 1 33 1c105.333 0 155.333 -33.667 150 -101zM373 204c1.33301 15.333 -16.668 25.333 -54.001 30l-2 -56c36.667 4 55.334 12.667 56.001 26z" />
    <glyph glyph-name="C" unicode="C" horiz-adv-x="553" 
d="M662 141c-35.333 -69.333 -76.9971 -124.667 -124.997 -166c-58 -50.667 -121.333 -76 -190 -76c-108.667 0 -194.334 37 -257.001 111c-58 68.667 -87.333 156.667 -88 264c-0.666992 124.667 17.666 229 54.999 313c51.333 113.333 132.666 170 243.999 170
c102.667 0 188 -31.667 256 -95c58.667 -53.333 88 -109.333 88 -168c0 -36.667 -13.667 -59.667 -41 -69l-97 -41c-40 -16.667 -71 -25 -93 -25c-42 0 -65.333 28.333 -70 85c-2 24.667 -6.33301 44.334 -13 59.001c-36 -46 -54 -106.667 -54 -182
c0 -38.667 5.33301 -72 16 -100s23.667 -42 39 -42c26 0 50.667 38.333 74 115c8.66699 28.667 33 43 73 43c44 0 89.5 -14.333 136.5 -43s70.5 -58.334 70.5 -89.001c0 -7.33301 -1.33301 -14 -4 -20zM621.003 207.999l-152.999 67.001c-10 -30.667 -21 -56.667 -33 -78
c-28 -52 -57.333 -78.333 -88 -79c-46.667 -0.666992 -81.667 18.333 -105 57c-20.667 33.333 -31 77.666 -31 132.999c0 62.667 11.667 121 35 175c24 56.667 51.667 86.667 83 90c50 5.33301 77 -44 81 -148l172 61c-8 40 -22.667 74.333 -44 103
c-50.667 68.667 -129.667 103 -237 103s-178.666 -69.667 -213.999 -209c-14.667 -58 -21.334 -127.667 -20.001 -209c1.33301 -60 11 -111.667 29 -155c44 -103.333 127.667 -155 251 -155c75.333 0 143.666 40.667 204.999 122c25.333 34 48.333 74.667 69 122z" />
    <glyph glyph-name="D" unicode="D" horiz-adv-x="534" 
d="M635 306c-3.33301 -103.333 -34.332 -186.666 -92.999 -249.999c-48 -50.667 -110.667 -86.334 -188 -107.001c-54 -14 -110.333 -21 -169 -21c-91.333 0 -137 24 -137 72v651c0 24.667 16 44.667 48 60c23.333 11.333 55 20.333 95 27c24 2.66699 48.167 5.66699 72.5 9
s47.833 5 70.5 5c209.333 0 309.666 -148.667 300.999 -446zM570.001 308c7.33301 252.667 -70.668 379 -234.001 379c-19.333 0 -40.333 -1.66699 -63 -5c-67.333 -10 -120.666 -20.333 -159.999 -31v-651c24 -3.33301 50.667 -5 80 -5c94 0 172 17.667 234 53
c92 52 139.667 138.667 143 260zM439 351c-2 -74 -28.333 -130.333 -79 -169c-30 -24 -65 -39.333 -105 -46l-2 373c23.333 8.66699 46.333 13 69 13c81.333 0 120.333 -57 117 -171zM374 353c2 55.333 -7.33203 88.333 -27.999 99c-6.66699 4 -16 5.66699 -28 5l1 -224
c35.333 27.333 53.666 67.333 54.999 120z" />
    <glyph glyph-name="E" unicode="E" horiz-adv-x="548" 
d="M577 309l-286 -29.001c4 -18 19.333 -27 46 -27c6.66699 0 17 0.666992 31 2s24.333 2 31 2c32.667 0 49 -14.333 49 -43c0 -9.33301 -1.66699 -20.666 -5 -33.999l-32 -154c-18.667 -64 -44.667 -96.667 -78 -98c-100 -5.33301 -177.333 29 -232 103
c-48.667 64.667 -73 149.334 -73 254.001c0 116.667 27.667 219.667 83 309c60 97.333 135.333 146 226 146c40.667 0 82.667 -10.667 126 -32c50 -24.667 92 -69 126 -133c32 -60 48 -117 48 -171c0 -58.667 -20 -90.334 -60 -95.001zM570 373.999
c-13.333 198 -92 296.999 -236 296.999c-18 0 -40 -2 -66 -6c-55.333 -8.66699 -99 -45.667 -131 -111c-29.333 -60 -44 -131.333 -44 -214c0 -96.667 19.333 -177.667 58 -243c44 -73.333 103.667 -108 179 -104l50 203c-23.333 -8.66699 -44 -13 -62 -13
c-62.667 0 -94 44 -94 132c0 8.66699 0.333008 16.334 1 23.001zM424 465.998l-183 -21c6 65.333 32 100 78 104c58 4 93 -23.667 105 -83z" />
    <glyph glyph-name="F" unicode="F" horiz-adv-x="466" 
d="M533 665c4 -3.33301 6 -25.334 6 -66.001c0 -105.333 -31.333 -160.666 -94 -165.999c0 -22.667 0.666992 -63 2 -121c0.666992 -28.667 -12.333 -48.334 -39 -59.001c-13.333 -5.33301 -38 -9.66602 -74 -12.999l14 -127c4.66699 -38.667 7 -65.667 7 -81
c0 -38 -15.333 -62 -46 -72c-14.667 -4.66699 -77.667 -13 -189 -25c-20 -2 -37 3.33301 -51 16s-21 29 -21 49l2 648c0 51.333 54 77 162 77c14 0 30.333 -0.666992 49 -2c16.667 -0.666992 26 -1 28 -1l172 9c18 0.666992 41.667 -6 71 -20zM477 500.999
c-3.33301 54.667 -6.33301 109.667 -9 165l-353 -18l-2 -648l177 19l-27 280l119 11l-4 128l-122 -13l-11 64z" />
    <glyph glyph-name="G" unicode="G" horiz-adv-x="502" 
d="M586 172c-5.33301 -99.333 -36.666 -178.334 -93.999 -237.001c-52 -52.667 -114 -79 -186 -79c-61.333 0 -115 20 -161 60c-50 44 -81.333 104 -94 180c-10.667 66.667 -10.334 132.334 0.999023 197.001c2.66699 16.667 14.667 30.667 36 42
c-34.667 45.333 -52 94 -52 146c0 25.333 4.33301 50 13 74c43.333 121.333 118.666 182 225.999 182c21.333 0 43.666 -3 66.999 -9c10.667 12.667 30.834 23.167 60.501 31.5s60.834 12.5 93.501 12.5c39.333 0 71 -6 95 -18c27.333 -14 40 -34.667 38 -62zM522 174.999
c3.33301 58 17.334 232.333 42.001 523l-173 -11l3 -47c-42.667 21.333 -82.334 32 -119.001 32c-76.667 0 -131.667 -46.333 -165 -139c-6 -16.667 -9 -34 -9 -52c0 -45.333 16 -85.333 48 -120c34.667 -37.333 79.667 -59.333 135 -66c12 -1.33301 23.333 -2 34 -2
c38 0 69 9.33301 93 28v-2c1.33301 -48.667 -1 -90 -7 -124c-13.333 -81.333 -43.333 -120.666 -90 -117.999c-40.667 2 -61 29 -61 81c0 34 8 73 24 117l-161 6c-4.66699 -28.667 -7 -59.334 -7 -92.001c0 -68.667 11 -124.667 33 -168
c30.667 -61.333 81 -93.666 151 -96.999c83.333 -3.33301 144.333 26 183 88c26.667 41.333 42 95.666 46 162.999zM344.001 231.999c-4.66699 -0.666992 -9.33301 -1.66602 -14 -2.99902v-2c-8 -28 -12 -51.333 -12 -70c0 -8.66699 0.666992 -15 2 -19
c11.333 -0.666992 19.333 30.666 24 93.999zM399.002 426c-28 -10.667 -54.333 -16 -79 -16c-42.667 0 -67 18.667 -73 56c-0.666992 4.66699 -1 9 -1 13c0 52.667 49 81.667 147 87zM332.002 476v13.999c-14.667 -5.33301 -21.667 -9.66602 -21 -12.999
c8 -1.33301 12.667 -2 14 -2c2 0 4.33301 0.333008 7 1z" />
    <glyph glyph-name="H" unicode="H" 
d="M639 53c0 -79.333 -3.66504 -128.998 -10.998 -148.998c-8.66699 -24.667 -31 -39.334 -67 -44.001c-58.667 -4 -117.334 -7.66699 -176.001 -11c-18.667 -1.33301 -34.834 4.5 -48.501 17.5s-20.5 29.167 -20.5 48.5v20c-8 -4.66699 -18.333 -7.33398 -31 -8.00098
s-26 -2 -40 -4c-26.667 -2.66699 -50 -4 -70 -4c-82.667 0 -125 22.667 -127 68l-39 810c-1.33301 28.667 21.667 54 69 76c44.667 21.333 92.334 32 143.001 32c77.333 0 114.666 -24.667 111.999 -74l-13 -223c22.667 6.66699 44 10 64 10
c99.333 0 170.333 -74.667 213 -224c28 -96 42 -209.667 42 -341zM570.002 -72.998c2.66699 35.333 4.00098 74.667 4.00098 118c0 129.333 -11.333 236 -34 320c-32.667 123.333 -86.667 185 -162 185c-38 0 -81.333 -16 -130 -48l20 333l-194 -35l39 -810l172 3
c-14 152.667 -19.667 250.334 -17 293.001c1.33301 20 8.16602 38 20.499 54s25.5 24 39.5 24c24 0 38.667 -25.333 44 -76c8 -80.667 11 -205.334 9 -374.001z" />
    <glyph glyph-name="I" unicode="I" horiz-adv-x="295" 
d="M370 672l-20.998 -683.999c-0.666992 -23.333 -14.334 -41.666 -41.001 -54.999c-24 -11.333 -54.333 -17 -91 -17c-42 0 -78.667 7.33301 -110 22c-34.667 15.333 -52 35.666 -52 60.999l-7 651c0 27.333 21.333 50.666 64 69.999c39.333 17.333 83 26 131 26
c37.333 0 67.333 -5.66699 90 -17c25.333 -13.333 37.666 -32.333 36.999 -57zM305.002 674.001l-192 -23l7 -651l164 -10z" />
    <glyph glyph-name="J" unicode="J" horiz-adv-x="543" 
d="M635 674l-9 -440.999c-2 -97.333 -26.333 -178.333 -73 -243c-54 -74 -128 -111 -222 -111c-98 0 -173 42.333 -225 127c-43.333 70.667 -65 157 -65 259c0 16 0.666992 32 2 48c2 24 21.667 44 59 60c34 15.333 72.333 23 115 23c34.667 0 62.667 -5.66699 84 -17
c24 -12.667 36 -30.667 36 -54c0 -10 -1.5 -25.167 -4.5 -45.5s-4.5 -35.833 -4.5 -46.5c0 -38 3.66699 -57 11 -57c10 0 15 31.667 15 95c0 26.667 -1.33301 50.334 -4 71.001c-6 45.333 -16 107 -30 185c-9.33301 53.333 -14 89.666 -14 108.999c0 36.667 17.667 61 53 73
c18.667 6 86.334 16.333 203.001 31c20.667 2 38.167 -3.33301 52.5 -16s21.166 -29.334 20.499 -50.001zM570 675.001l-195.001 -23.999l39 -300c3.33301 -26.667 5 -54 5 -82c0 -106.667 -27 -159.334 -81 -158.001c-50 1.33301 -75 42.333 -75 123
c0 28.667 3 58.334 9 89.001l-164 -15c-2 -70.667 3.66699 -131.334 17 -182.001c32.667 -121.333 101.334 -182 206.001 -182c83.333 0 145.333 36.667 186 110c28 50.667 42.667 110.667 44 180z" />
    <glyph glyph-name="K" unicode="K" horiz-adv-x="598" 
d="M665 634c-0.666992 -126.667 -31.3311 -227.333 -91.998 -302c28 -30 59.667 -86.333 95 -169c38.667 -92 58 -166.333 58 -223c0 -57.333 -22 -86.333 -66 -87l-229 -3c-25.333 0 -43.333 10 -54 30c-8 15.333 -12 40 -12 74c0 11.333 0.5 29 1.5 53s1.5 42.333 1.5 55
c0 46 -5.33301 82 -16 108c0 -1.33301 0.833008 -12.833 2.5 -34.5s2.5 -41.167 2.5 -58.5c0 -94.667 -24.667 -142 -74 -142h-170c-17.333 0 -32.5 6.5 -45.5 19.5s-19.5 28.167 -19.5 45.5v651c0 26 19 47.667 57 65c34 15.333 74 23 120 23
c77.333 0 122.333 -19.667 135 -59v1c-0.666992 39.333 30.666 59 93.999 59c47.333 0 93.666 -10.667 138.999 -32c48 -22 72 -46.667 72 -74zM362.003 654.001l-5 -154c12.667 20 19 41.333 19 64c0 12 -2 27 -6 45c-5.33301 26.667 -8 41.667 -8 45zM659.003 -81.999
c-24 210.667 -84.667 347.666 -182 410.999c80.667 62.667 121.667 164.334 123 305.001l-174 39c8.66699 -33.333 13 -67 13 -101c0 -112.667 -50 -170.667 -150 -174l8 265l-184 -12v-651h170l6 262c12 3.33301 23.333 5 34 5c76 0 114 -80.667 114 -242
c0 -38 -2.33301 -74.667 -7 -110z" />
    <glyph glyph-name="L" unicode="L" horiz-adv-x="428" 
d="M505 20c2 -35.333 -24.334 -60.0029 -79.001 -74.0029c-39.333 -9.33301 -96.333 -13.666 -171 -12.999c-108 0.666992 -154.333 1.33398 -139 2.00098c-62 -2.66699 -93 87.333 -93 270c0 72.667 5.16699 164.5 15.5 275.5s15.5 168.167 15.5 171.5
c0 24.667 18 45.667 54 63c33.333 16 71 24 113 24c33.333 0 60.333 -5.66699 81 -17c23.333 -12.667 35 -31 35 -55l-5 -410c34.667 4 61 6 79 6c34 0 56.333 -6.5 67 -19.5s17.334 -38.167 20.001 -75.5c2 -49.333 4.33301 -98.666 7 -147.999zM439.999 14.9971l-13 187
l-161 -17l6 483l-153 -17l-6 -651z" />
    <glyph glyph-name="M" unicode="M" horiz-adv-x="971" 
d="M1042 -7c2 -29.333 -17.999 -53.333 -59.999 -72c-38.667 -17.333 -83.334 -26 -134.001 -26c-37.333 0 -68.666 5.33301 -93.999 16c-28 11.333 -44 27.666 -48 48.999v-8c0 -24 -13 -42.333 -39 -55c-22.667 -12 -53 -18 -91 -18c-52.667 0 -99.667 10.333 -141 31
c-45.333 22 -65 48.667 -59 80l56 291c8 42.667 12 79.667 12 111c0 51.333 -9.33301 77 -28 77c-12 0 -25 -13 -39 -39c-14.667 -29.333 -26.667 -68.666 -36 -117.999c-1.33301 -12 -2 -24.667 -2 -38c0 -32.667 5.33301 -79.334 16 -140.001
c10.667 -63.333 16.334 -110 17.001 -140c0.666992 -27.333 -19.333 -50.666 -60 -69.999c-38 -17.333 -80 -26 -126 -26c-78.667 0 -118.667 23 -120 69l-18 682c-0.666992 27.333 15.333 48 48 62c27.333 12 61.333 18 102 18s70 -5 88 -15
c39.333 18.667 81.666 28 126.999 28c61.333 0 115.333 -16 162 -48c45.333 34 98.666 51 159.999 51c123.333 0 209 -52 257 -156c34 -73.333 51 -183 51 -329c0 -25.333 -0.5 -60.833 -1.5 -106.5s-1.5 -77.834 -1.5 -96.501c0 -25.333 0.666992 -46.666 2 -63.999z
M749.001 456c-28.667 -56.667 -43 -204.333 -43 -443c3.33301 69.333 16.333 159.333 39 270c6 28 9.33301 61.667 10 101c0 37.333 -2 61.333 -6 72zM977.001 -11.999c-4.66699 68 -7.00098 139.999 -7.00098 215.999c0 66 2 127.333 6 184c4 62.667 -11.667 123 -47 181
c-44.667 74 -109.334 111 -194.001 111c-65.333 0 -117.666 -24.667 -156.999 -74c-42.667 47.333 -97.667 71 -165 71c-58 0 -109 -19.333 -153 -58l-3 38l-144 -6l18 -682l176 23c-0.666992 15.333 -6.33398 56.333 -17.001 123c-10.667 64.667 -16 117.334 -16 158.001
c0 16.667 0.666992 32.667 2 48c8.66699 40.667 19.334 75.334 32.001 104.001c30.667 69.333 69.334 104.666 116.001 105.999c52.667 1.33301 79 -52.667 79 -162c0 -33.333 -2.33301 -66.333 -7 -99l-56 -292l201 -26c0 168 5.66699 303 17 405c12.667 112 42 168 88 168
c49.333 0 74 -46.667 74 -140c0 -36.667 -3.66699 -74.667 -11 -114c-26 -120 -39 -220 -39 -300z" />
    <glyph glyph-name="N" unicode="N" horiz-adv-x="665" 
d="M735 -32c0.666992 -27.333 -18.332 -50 -56.999 -68c-36 -16.667 -77 -25 -123 -25c-36 0 -65.333 6 -88 18c-25.333 12.667 -38 31 -38 55l2 323c0.666992 44 -1.33301 84.667 -6 122c-4 31.333 -9 55 -15 71c-42.667 -10.667 -64 -74.667 -64 -192
c0 -46.667 3.33301 -102 10 -166l14 -108c2.66699 -28.667 -16 -53 -56 -73c-36.667 -18.667 -77.667 -28 -123 -28c-74 0 -112 22.333 -114 67l-29 684c-1.33301 28.667 18 51.667 58 69c34.667 15.333 73.667 23 117 23c39.333 0 65.666 -6.33301 78.999 -19
c34.667 14 71.667 21 111 21c109.333 0 192 -46.667 248 -140c39.333 -65.333 60 -136 62 -212c1.33301 -57.333 5.33301 -198 12 -422zM670.001 -34l-12.0029 423c-1.33301 65.333 -18.666 125 -51.999 179c-44.667 72.667 -109 109 -193 109
c-57.333 0 -107.666 -18.667 -150.999 -56l-4 52l-145 -22l29 -684l163 24c-15.333 149.333 -22.666 257.333 -21.999 324c0 49.333 7.33301 91.666 22 126.999c23.333 58 63 87.667 119 89c33.333 0.666992 55.333 -42.666 66 -129.999c4 -36 6 -79.667 6 -131l-2 -322z
" />
    <glyph glyph-name="O" unicode="O" horiz-adv-x="591" 
d="M394 -74c-13.333 -2 -26.665 -3.00098 -39.998 -3.00098c-100.667 0 -181 45 -241 135c-54.667 80.667 -82 177.667 -82 291c0 94 20 175 60 243c43.333 74.667 103.666 119 180.999 133c17.333 2.66699 34.333 4 51 4c102 0 188.667 -49.333 260 -148
c66.667 -92 100 -196 100 -312c0 -90 -22.667 -165 -68 -225c-50.667 -67.333 -124.334 -106.666 -221.001 -117.999zM601.001 377.999c-16 90 -51.667 161.333 -107 214c-51.333 48 -109 72 -173 72c-72 0 -128.667 -31.333 -170 -94c-36.667 -55.333 -55 -121 -55 -197
c0 -26 2.33301 -52.667 7 -80c17.333 -97.333 41.333 -169.333 72 -216c40.667 -59.333 98 -89 172 -89c12.667 0 25.667 0.666992 39 2c152 18 228 104.333 228 259c0 37.333 -4.33301 80.333 -13 129zM421.001 382.999c-6.66699 6 -14.333 9 -23 9
c-16 0 -29.333 -12.333 -40 -37c-14.667 20 -30.334 30 -47.001 30c-11.333 0 -21.666 -4.66699 -30.999 -14c-6.66699 -14 -10 -27.333 -10 -40c0 -41.333 31.667 -75.333 95 -102c51.333 32.667 77 69 77 109c0 19.333 -7 34.333 -21 45zM346.002 104.999
c-44 4 -76.668 28.333 -98.001 73c-12 25.333 -23 68.333 -33 129c-3.33301 18.667 -5 37 -5 55c0 94 35.333 154.667 106 182l9 3c34.667 5.33301 69.334 -10 104.001 -46c54 -55.333 81 -124 81 -206c0 -56 -14 -101.667 -42 -137c-30 -39.333 -70.667 -57 -122 -53z" />
    <glyph glyph-name="P" unicode="P" horiz-adv-x="586" 
d="M679 406c-0.666992 -104 -28.666 -188.001 -83.999 -252.001c-58.667 -67.333 -141.667 -104.666 -249 -111.999c1.33301 -16 2 -30 2 -42c0 -42 -7.33301 -70 -22 -84c-12 -12.667 -36 -19.667 -72 -21c-44.667 -1.33301 -89.334 -2.33301 -134.001 -3
c-18.667 -1.33301 -34.834 4.5 -48.501 17.5s-20.5 28.5 -20.5 46.5l-1 715c0 27.333 19 49 57 65c35.333 15.333 81 23 137 23c102.667 0 194.334 -22.667 275.001 -68c96 -53.333 148 -126.333 156 -219c2.66699 -32.667 4 -54.667 4 -66zM610.001 464.999
c-6.66699 42.667 -22 79.335 -46 110.002c-58 73.333 -155.333 110 -292 110c-48 0 -100.333 -4.66699 -157 -14l1 -714l170 9l-9 140c131.333 -6.66699 225 28.666 281 105.999c37.333 51.333 56 116.666 56 195.999c0 21.333 -1.33301 40.333 -4 57zM484.001 410
c-2.66699 -34 -11.334 -63.001 -26.001 -87.001c-35.333 -57.333 -98.333 -84.666 -189 -81.999l-1 305c12.667 1.33301 25 2 37 2c68.667 0 118.334 -17.667 149.001 -53c22.667 -24.667 32.667 -53 30 -85zM419.001 411.999c2 40.667 -26.667 64 -86 70l1 -170
c54.667 12.667 83 46 85 100z" />
    <glyph glyph-name="Q" unicode="Q" horiz-adv-x="591" 
d="M753 32l50.998 -103.001c14 -28.667 21 -50 21 -64c0 -17.333 -9 -32.5 -27 -45.5s-50 -28.833 -96 -47.5c-35.333 -14 -70 -21 -104 -21c-99.333 0 -186.666 57.667 -261.999 173c-81.333 6.66699 -150.666 48.334 -207.999 125.001s-86 164.667 -86 264
c0 128 14 219.667 42 275c41.333 82 120.666 124.667 237.999 128c228.667 7.33301 343 -119 343 -379c0 -118.667 -30.333 -217.667 -91 -297c16 -10.667 38 -8.66699 66 6c34.667 17.333 56.667 26 66 26c18.667 0 34.334 -13.333 47.001 -40zM758.998 -134.001
l-64.9971 139c-33.333 -27.333 -66.666 -41 -99.999 -41c-42.667 0 -77.334 25.333 -104.001 76l-1 3c74 68 111 166 111 294c0 103.333 -18 179.666 -54 228.999c-43.333 60 -117.333 88.333 -222 85c-94.667 -2.66699 -157 -36.667 -187 -102
c-20 -43.333 -30 -122 -30 -236c0 -89.333 26 -166.666 78 -231.999c50 -62 107.333 -93 172 -93c5.33301 0 10.666 0.333008 15.999 1c65.333 -114.667 140.666 -172 225.999 -172c25.333 0 51.666 5.33301 78.999 16zM477.001 318.999
c-3.33301 -58.667 -19.001 -107.333 -47.001 -146c-16 40 -28 75.333 -36 106l-117 -36c2.66699 -12.667 11 -42.667 25 -90c-44 34 -66.333 89.333 -67 166c-0.666992 70.667 5.66602 120.334 18.999 149.001c15.333 33.333 43.333 50.666 84 51.999
c42.667 1.33301 77.334 -17.167 104.001 -55.5s38.334 -86.833 35.001 -145.5zM413 342c-0.666992 38.667 -9.66699 68.335 -27 89.002c-14 16.667 -29.333 24.667 -46 24c-14 -0.666992 -23 -5.33398 -27 -14.001c-9.33301 -20.667 -13.666 -61.334 -12.999 -122.001v-1
c14 5.33301 28.333 10.333 43 15c21.333 7.33301 38.666 11 51.999 11c6.66699 0 12.667 -0.666992 18 -2z" />
    <glyph glyph-name="R" unicode="R" horiz-adv-x="532" 
d="M602 -171l-176 -12.002c-46 -3.33301 -69 28.334 -69 95.001c0 12 0.833008 32.5 2.5 61.5s2.5 50.833 2.5 65.5c0 62.667 -12.333 108.334 -37 137.001l7 -146c0 -34 -5.5 -56.833 -16.5 -68.5s-33.833 -19.167 -68.5 -22.5
c-49.333 -3.33301 -98.666 -6.33301 -147.999 -9c-18.667 -1.33301 -34.834 4.5 -48.501 17.5s-20.5 28.833 -20.5 47.5v665c0 28.667 21.667 52.167 65 70.5s95.333 27.5 156 27.5c91.333 0 168.333 -19.667 231 -59c74 -46.667 109.333 -113.334 106 -200.001
c4 -70 -11.667 -130.667 -47 -182c30 -31.333 58.667 -85.666 86 -162.999c28 -80.667 42 -151 42 -211c0 -72.667 -22.333 -110.667 -67 -114zM598 -106.002c-1.33301 126.667 -17.666 225 -48.999 295c-22.667 50.667 -57.334 91.667 -104.001 123c56 36.667 82 99 78 187
c0 36 -7.66699 67 -23 93c-36.667 62.667 -108 94 -214 94c-55.333 0 -119 -8.66699 -191 -26v-665l173 11l-12 249c13.333 3.33301 26 5 38 5c89.333 0 134 -88.667 134 -266c0 -38.667 -2 -76 -6 -112zM405 510.998c2 -90.667 -37.333 -136 -118 -136
c-14 0 -29 1.66699 -45 5l-8 189c15.333 1.33301 29.666 2 42.999 2c80.667 0 123.334 -20 128.001 -60zM341 499.998c-7.33301 3.33301 -20.333 5.33301 -39 6l2 -63c26 6.66699 38.333 25.667 37 57z" />
    <glyph glyph-name="S" unicode="S" horiz-adv-x="499" 
d="M568 119c-2 -62.667 -30.665 -120.668 -85.998 -174.001c-60 -57.333 -129.333 -85 -208 -83c-51.333 1.33301 -117 28.333 -197 81c-85.333 56.667 -128 108 -128 154c0 14.667 5 28 15 40l39 53c29.333 36.667 55.666 64.334 78.999 83.001
c-34 51.333 -51 113.333 -51 186c0 71.333 17 132.333 51 183c38 56.667 90 87.667 156 93c81.333 7.33301 155.666 -18 222.999 -76c58 -50 94 -106.667 108 -170c14 -64 -2.33301 -100 -49 -108l-60 -16c76.667 -55.333 112.667 -137.333 108 -246zM509.002 444.999
c-20.667 102.667 -70.999 170.999 -150.999 204.999c-33.333 14.667 -71.333 21.667 -114 21c-46 -3.33301 -83 -27.666 -111 -72.999c-24.667 -41.333 -37 -90.333 -37 -147c0 -48 9.33301 -90 28 -126c21.333 -39.333 50.666 -64 87.999 -74
c50 -13.333 88.667 -31.666 116 -54.999c24 -20 36 -40.667 36 -62c0 -16.667 -7.66699 -30.334 -23 -41.001s-36 -15.667 -62 -15c-19.333 1.33301 -37.333 7 -54 17c-40 24 -71 69 -93 135l-119 -136c103.333 -109.333 191 -165 263 -167
c60 -1.33301 113.667 20.334 161 65.001c42.667 41.333 65 84.333 67 129c2 51.333 -7.66699 96.666 -29 135.999c-28 51.333 -73 86 -135 104c-37.333 10.667 -66.333 28 -87 52c-17.333 21.333 -26 44 -26 68c0 37.333 16.667 57.333 50 60
c48 -2.66699 69 -44.667 63 -126z" />
    <glyph glyph-name="T" unicode="T" horiz-adv-x="530" 
d="M624 659l-9 -177c-2 -40.667 -29.333 -61 -82 -61c1.33301 0 -20 1.66699 -64 5c-0.666992 -19.333 0.666016 -60.666 3.99902 -123.999c4 -68 6 -120.333 6 -157c0 -152 -27.333 -228.667 -82 -230c-15.333 -2.66699 -30.666 -5 -45.999 -7c-30.667 -4 -58 -6 -82 -6
c-86.667 0 -128.667 25 -126 75l24 433c-38.667 -5.33301 -62.334 -8 -71.001 -8c-47.333 0 -70.666 21.333 -69.999 64c0 -2 -1.33301 10.167 -4 36.5s-4 50.833 -4 73.5c0 103.333 25.333 155 76 155c30 -0.666992 82.333 1.16602 157 5.49902s130 6.5 166 6.5
c140.667 0 209.667 -28 207 -84zM559 662l-465 4l-3 -201l146 20l-29 -512l187 7l10 516l145 -10z" />
    <glyph glyph-name="U" unicode="U" horiz-adv-x="576" 
d="M649 322c-12 -111.333 -36.332 -201.001 -72.999 -269.001c-51.333 -96.667 -125 -145 -221 -145c-123.333 0 -214 58 -272 174c-46 91.333 -69 211 -69 359c0 75.333 6 148.333 18 219c3.33301 22 22.333 40 57 54c31.333 12 67.666 18 108.999 18
c58.667 0 101 -11.667 127 -35c12 20 35.667 35.667 71 47c33.333 11.333 69.333 17 108 17s71 -5.66699 97 -17c29.333 -12 45 -29 47 -51c6 -61.333 9 -126.666 9 -195.999c0 -62.667 -2.66699 -121 -8 -175zM337.001 220.999c15.333 18 23 55.332 23 111.999
c0 63.333 -8.66699 144.333 -26 243c-13.333 -93.333 -20 -171.333 -20 -234c0 -65.333 7.66699 -105.666 23 -120.999zM584.001 685.998l-202 -17.002c28 -128.667 42 -237 42 -325c0 -120 -28 -182 -84 -186c-60.667 -4.66699 -91 62 -91 200
c0 80.667 10.333 179.334 31 296.001l-184 -4c-10.667 -69.333 -16 -140.666 -16 -213.999c0 -126.667 17 -228.667 51 -306c46 -104.667 120.667 -157 224 -157c90.667 0 155.667 61 195 183c28.667 87.333 43 201.333 43 342c0 66 -3 128.667 -9 188z" />
    <glyph glyph-name="V" unicode="V" horiz-adv-x="540" 
d="M577 657c38 -4.66699 57.002 -32.666 57.002 -83.999c0 -50.667 -21.667 -138.667 -65 -264c-70.667 -204.667 -108 -313.667 -112 -327c-5.33301 -18.667 -22.833 -33.834 -52.5 -45.501s-62.167 -17.5 -97.5 -17.5c-69.333 0 -108.333 18.333 -117 55
c-0.666992 2 -33 109.333 -97 322c-44 145.333 -66 249.666 -66 312.999c0 64 20.333 97.667 61 101l180 14c11.333 -5.33301 21.666 -11.333 30.999 -18c20.667 -15.333 32.667 -32.666 36 -51.999l7 -40c10 42 42.333 63 97 63c19.333 0 44.666 -3 75.999 -9
c38 -7.33301 58.667 -11 62 -11zM570.002 592.001l-162 18l-76 -326l-64 375l-175 -14l160 -656l142 11z" />
    <glyph glyph-name="W" unicode="W" horiz-adv-x="839" 
d="M899 740c41.333 -2.66699 61.998 -38.666 61.998 -107.999c0 -67.333 -21.667 -176 -65 -326l-91 -315c-7.33301 -34.667 -41 -52 -101 -52c-16 0 -37.167 1.33301 -63.5 4s-42.833 4 -49.5 4c-9.33301 0.666992 -18 3 -26 7c-18 8.66699 -30.667 23.334 -38 44.001
l-9 24l-38 105c-27.333 -92.667 -41.333 -140 -42 -142c-10.667 -26 -29 -42 -55 -48c-8.66699 -2 -57 -6.33301 -145 -13c-13.333 -0.666992 -27.166 4.16602 -41.499 14.499s-23.166 22.166 -26.499 35.499c-0.666992 2 -33 109.333 -97 322
c-44 145.333 -66 249.666 -66 312.999c0 64 20.333 97.667 61 101l180 14c11.333 -5.33301 21.666 -11.333 30.999 -18c20.667 -15.333 32.667 -32.666 36 -51.999l7 -40c11.333 46.667 52.333 70 123 70c38.667 0 74.334 -8.33301 107.001 -25
c35.333 -18.667 58.333 -43 69 -73c14 72.667 26 118 36 136c12.667 22 35 33 67 33c12.667 0 35.667 -1.66699 69 -5c44 -4.66699 79.333 -8 106 -10zM893.998 675.001l-187.001 13l-67 -349l-90 253l-162 18l-76 -326l-64 375l-175 -14l160 -656l142 11l100 337
c74.667 -210 113.334 -318.333 116.001 -325l151 -7z" />
    <glyph glyph-name="X" unicode="X" horiz-adv-x="704" 
d="M728 714c34 -7.33301 50.9961 -25.666 50.9961 -54.999c0 -28.667 -17.333 -72 -52 -130l-90 -147l182 -203c32.667 -40 39.334 -74 20.001 -102c-11.333 -17.333 -64.666 -65.333 -159.999 -144c-10.667 -9.33301 -22.667 -14 -36 -14c-35.333 0 -77.666 31 -126.999 93
l-64 95l-87 -175c-19.333 -32 -43.333 -48 -72 -48c-14 0 -74.667 12.333 -182 37c-32.667 7.33301 -49 26 -49 56c0 30.667 20.667 81 62 151l119 198l-174 218c-30 43.333 -31 75.666 -3 96.999c18.667 14 88.334 43 209.001 87c6 2.66699 12.333 4 19 4
c23.333 0 47.333 -15.667 72 -47l45 -67c30.667 58.667 52 95.667 64 111c16.667 20.667 36 31 58 31c14 0 38 -4.66699 72 -14c59.333 -16 100.333 -26.667 123 -32zM786.996 106l-229 268l156 277l-190 43l-104 -201l-123 174l-184 -67l208 -268l-195 -348l169 -39
l145 279l198 -241z" />
    <glyph glyph-name="Y" unicode="Y" horiz-adv-x="543" 
d="M632 238c-1.33301 -77.333 -19.999 -148.664 -55.999 -213.997c-53.333 -96.667 -135 -145 -245 -145c-79.333 0 -148 33.333 -206 100c-52 59.333 -78 120.333 -78 183c0 48.667 19 78 57 88c-70 62.667 -105 163.667 -105 303c0 28 1.66699 56 5 84
c3.33301 22.667 22.666 41.667 57.999 57c32.667 14 69.334 21 110.001 21c35.333 0 64 -6 86 -18c25.333 -12.667 38 -31 38 -55c0 -4 -0.333008 -8.33301 -1 -13c-6.66699 -34 -10 -69.667 -10 -107c0 -27.333 2.33301 -50 7 -68c11.333 1.33301 25.333 5.33301 42 12
c-15.333 113.333 -23 172.666 -23 177.999c0 33.333 14.667 55.666 44 66.999c9.33301 3.33301 67.333 16.666 174 39.999c5.33301 0.666992 10.666 1 15.999 1c16.667 0 31 -5.5 43 -16.5s18.667 -25.5 20 -43.5c17.333 -216.667 25.333 -368 24 -454zM567.001 239.002
c1.33301 84.667 -6.66602 234.001 -23.999 448.001l-168 -36l29 -221c-40.667 -27.333 -79.334 -41 -116.001 -41c-28 0 -46 11.333 -54 34c-9.33301 26 -14 59.333 -14 100c0 38.667 3.66699 78 11 118l-162 -12c-2.66699 -21.333 -4 -44.666 -4 -69.999
c0 -76.667 11 -140 33 -190c31.333 -72.667 83.666 -109 156.999 -109c46.667 0 101 15 163 45c0.666992 -12 1 -24 1 -36c0 -106.667 -27 -159.334 -81 -158.001c-48 1.33301 -73 38.666 -75 111.999l-150 -38c23.333 -160.667 96 -241 218 -241
c83.333 0 146.333 37.333 189 112c30.667 54 46.334 115 47.001 183zM350.002 209.003c-6.66699 -1.33301 -13.332 -3 -19.999 -5c1.33301 -11.333 3.66602 -20 6.99902 -26c6 6.66699 10.333 17 13 31z" />
    <glyph glyph-name="Z" unicode="Z" horiz-adv-x="580" 
d="M661 410l-167.999 -196c38.667 0.666992 64.667 -1 78 -5c29.333 -8 44 -27.667 44 -59v-167c0 -32 -29.667 -57.333 -89 -76c-53.333 -17.333 -117.666 -26 -192.999 -26c-66.667 0 -123.334 6.66699 -170.001 20c-51.333 14.667 -80 34.334 -86 59.001
c-22.667 66.667 -34 121 -34 163c0 27.333 5.33301 46.333 16 57l246 254c-135.333 -9.33301 -197 -14 -185 -14c-39.333 0 -64 14.333 -74 43c-4.66699 14.667 -12.667 75 -24 181c-3.33301 36 19.667 61 69 75c39.333 11.333 99.666 17 180.999 17c28.667 0 82 -1 160 -3
c66.667 -2.66699 116 -3.5 148 -2.5s57.333 -24.167 76 -75.5c16 -44 24 -94 24 -150c0 -48.667 -6.33301 -80.334 -19 -95.001zM612.001 452l-29 214l-496 -15l17 -166l366 26l-364 -376l35 -161l409 9v167l-201 -4z" />
    <glyph glyph-name="bracketleft" unicode="[" horiz-adv-x="629" 
d="M573 498c36.667 -33.333 55.0039 -75.6689 55.0039 -127.002c0 -72 -34.333 -136 -103 -192c-2.66699 -15.333 -10.334 -28.166 -23.001 -38.499s-27.334 -15.5 -44.001 -15.5c-20.667 -14.667 -48 -30.667 -82 -48h-15c-80.667 42 -143.334 91 -188.001 147
c-41.333 52.667 -62 104.334 -62 155.001c0 47.333 18 87.333 54 120c30 26 63.333 39 100 39c36 0 70.667 -13.667 104 -41c33.333 26.667 67.666 40 102.999 40c37.333 0 71 -13 101 -39zM553.004 475.997c-24 20 -50.668 30 -80.001 30c-36 0 -70.667 -16.333 -104 -49
c-33.333 33.333 -68 50 -104 50c-29.333 0 -56 -10 -80 -30c-28.667 -26 -43 -59.333 -43 -100c0 -44 17.667 -88.667 53 -134c40 -51.333 97.667 -96.666 173 -135.999h1c29.333 15.333 56 31.666 80 48.999c2.66699 -0.666992 5.66699 -1 9 -1
c10.667 0 19.834 3.66699 27.501 11s11.5 16.333 11.5 27l-1 1c66.667 59.333 100 120.333 100 183c0 40 -14.333 73 -43 99zM475.003 307.997l-43 -6.00195c1.33301 6.66699 2 13.334 2 20.001c0 22.667 -7 33 -21 31c-10.667 -1.33301 -16 -10.333 -16 -27
c0 -11.333 2.33301 -24.666 7 -39.999l55 7l3 -36l-50 -5l11 -56l-45 -9l-16 130c-5.33301 46.667 11 72.667 49 78c40 5.33301 61.333 -23.667 64 -87zM479.003 192.995c0 -14 -7 -21 -21 -21s-21 7 -21 21s7 21 21 21s21 -7 21 -21zM331.003 362.995l-42.999 -6.00195
c1.33301 6.66699 2 13.334 2 20.001c0 22 -7 32.333 -21 31c-11.333 -1.33301 -17 -10.333 -17 -27c0 -11.333 2.33301 -24.666 7 -39.999l56 7l3 -37l-50 -4l10 -56l-45 -9l-15 130c-5.33301 46.667 11 72.667 49 78c39.333 4.66699 60.666 -24.333 63.999 -87z
M346.004 248.993c0 -14 -7 -21 -21 -21s-21 7 -21 21s7 21 21 21s21 -7 21 -21z" />
    <glyph glyph-name="backslash" unicode="\" 
d="M523 476c28.667 -26 43.001 -59 43.001 -99c0 -62.667 -33.333 -123.667 -100 -183l1 -1c0 -10.667 -3.83301 -19.667 -11.5 -27s-16.834 -11 -27.501 -11c-3.33301 0 -6.33301 0.333008 -9 1c-24 -17.333 -50.667 -33.666 -80 -48.999h-1
c-75.333 39.333 -133 84.666 -173 135.999c-35.333 45.333 -53 90 -53 134c0 40.667 14.333 74 43 100c24 20 50.667 30 80 30c36 0 70.667 -16.667 104 -50c33.333 32.667 68 49 104 49c29.333 0 56 -10 80 -30zM445.001 308c-2.66699 63.333 -24 92.335 -64 87.002
c-38 -5.33301 -54.333 -31.333 -49 -78l16 -130l45 9l-11 56l50 5l-3 36l-55 -7c-4.66699 15.333 -7 28.666 -7 39.999c0 16.667 5.33301 25.667 16 27c14 2 21 -8.33301 21 -31c0 -6.66699 -0.666992 -13.334 -2 -20.001zM449.001 193.002c0 14 -7 21 -21 21
s-21 -7 -21 -21s7 -21 21 -21s21 7 21 21zM301.001 363.002c-3.33301 63.333 -24.667 92.335 -64 87.002c-38 -5.33301 -54.333 -31.333 -49 -78l15 -130l45 9l-10 56l50 4l-3 37l-56 -7c-4.66699 15.333 -7 28.666 -7 39.999c0 16.667 5.66699 25.667 17 27
c14 1.33301 21 -9 21 -31c0 -6.66699 -0.666992 -13.334 -2 -20.001zM316 249.004c0 14 -7 21 -21 21s-21 -7 -21 -21s7 -21 21 -21s21 7 21 21z" />
    <glyph glyph-name="bracketright" unicode="]" horiz-adv-x="629" 
d="M573 498c36.667 -33.333 55.0039 -75.6689 55.0039 -127.002c0 -72 -34.333 -136 -103 -192c-2.66699 -15.333 -10.334 -28.166 -23.001 -38.499s-27.334 -15.5 -44.001 -15.5c-20.667 -14.667 -48 -30.667 -82 -48h-15c-80.667 42 -143.334 91 -188.001 147
c-41.333 52.667 -62 104.334 -62 155.001c0 47.333 18 87.333 54 120c30 26 63.333 39 100 39c36 0 70.667 -13.667 104 -41c33.333 26.667 67.666 40 102.999 40c37.333 0 71 -13 101 -39zM553.004 475.997c-24 20 -50.668 30 -80.001 30c-36 0 -70.667 -16.333 -104 -49
c-33.333 33.333 -68 50 -104 50c-29.333 0 -56 -10 -80 -30c-28.667 -26 -43 -59.333 -43 -100c0 -44 17.667 -88.667 53 -134c40 -51.333 97.667 -96.666 173 -135.999h1c29.333 15.333 56 31.666 80 48.999c2.66699 -0.666992 5.66699 -1 9 -1
c10.667 0 19.834 3.66699 27.501 11s11.5 16.333 11.5 27l-1 1c66.667 59.333 100 120.333 100 183c0 40 -14.333 73 -43 99zM475.003 307.997l-43 -6.00195c1.33301 6.66699 2 13.334 2 20.001c0 22.667 -7 33 -21 31c-10.667 -1.33301 -16 -10.333 -16 -27
c0 -11.333 2.33301 -24.666 7 -39.999l55 7l3 -36l-50 -5l11 -56l-45 -9l-16 130c-5.33301 46.667 11 72.667 49 78c40 5.33301 61.333 -23.667 64 -87zM479.003 192.995c0 -14 -7 -21 -21 -21s-21 7 -21 21s7 21 21 21s21 -7 21 -21zM331.003 362.995l-42.999 -6.00195
c1.33301 6.66699 2 13.334 2 20.001c0 22 -7 32.333 -21 31c-11.333 -1.33301 -17 -10.333 -17 -27c0 -11.333 2.33301 -24.666 7 -39.999l56 7l3 -37l-50 -4l10 -56l-45 -9l-15 130c-5.33301 46.667 11 72.667 49 78c39.333 4.66699 60.666 -24.333 63.999 -87z
M346.004 248.993c0 -14 -7 -21 -21 -21s-21 7 -21 21s7 21 21 21s21 -7 21 -21z" />
    <glyph glyph-name="asciicircum" unicode="^" 
d="M523 476c28.667 -26 43.001 -59 43.001 -99c0 -62.667 -33.333 -123.667 -100 -183l1 -1c0 -10.667 -3.83301 -19.667 -11.5 -27s-16.834 -11 -27.501 -11c-3.33301 0 -6.33301 0.333008 -9 1c-24 -17.333 -50.667 -33.666 -80 -48.999h-1
c-75.333 39.333 -133 84.666 -173 135.999c-35.333 45.333 -53 90 -53 134c0 40.667 14.333 74 43 100c24 20 50.667 30 80 30c36 0 70.667 -16.667 104 -50c33.333 32.667 68 49 104 49c29.333 0 56 -10 80 -30zM445.001 308c-2.66699 63.333 -24 92.335 -64 87.002
c-38 -5.33301 -54.333 -31.333 -49 -78l16 -130l45 9l-11 56l50 5l-3 36l-55 -7c-4.66699 15.333 -7 28.666 -7 39.999c0 16.667 5.33301 25.667 16 27c14 2 21 -8.33301 21 -31c0 -6.66699 -0.666992 -13.334 -2 -20.001zM449.001 193.002c0 14 -7 21 -21 21
s-21 -7 -21 -21s7 -21 21 -21s21 7 21 21zM301.001 363.002c-3.33301 63.333 -24.667 92.335 -64 87.002c-38 -5.33301 -54.333 -31.333 -49 -78l15 -130l45 9l-10 56l50 4l-3 37l-56 -7c-4.66699 15.333 -7 28.666 -7 39.999c0 16.667 5.66699 25.667 17 27
c14 1.33301 21 -9 21 -31c0 -6.66699 -0.666992 -13.334 -2 -20.001zM316 249.004c0 14 -7 21 -21 21s-21 -7 -21 -21s7 -21 21 -21s21 7 21 21z" />
    <glyph glyph-name="underscore" unicode="_" horiz-adv-x="629" 
d="M573 498c36.667 -33.333 55.0039 -75.6689 55.0039 -127.002c0 -72 -34.333 -136 -103 -192c-2.66699 -15.333 -10.334 -28.166 -23.001 -38.499s-27.334 -15.5 -44.001 -15.5c-20.667 -14.667 -48 -30.667 -82 -48h-15c-80.667 42 -143.334 91 -188.001 147
c-41.333 52.667 -62 104.334 -62 155.001c0 47.333 18 87.333 54 120c30 26 63.333 39 100 39c36 0 70.667 -13.667 104 -41c33.333 26.667 67.666 40 102.999 40c37.333 0 71 -13 101 -39zM553.004 475.997c-24 20 -50.668 30 -80.001 30c-36 0 -70.667 -16.333 -104 -49
c-33.333 33.333 -68 50 -104 50c-29.333 0 -56 -10 -80 -30c-28.667 -26 -43 -59.333 -43 -100c0 -44 17.667 -88.667 53 -134c40 -51.333 97.667 -96.666 173 -135.999h1c29.333 15.333 56 31.666 80 48.999c2.66699 -0.666992 5.66699 -1 9 -1
c10.667 0 19.834 3.66699 27.501 11s11.5 16.333 11.5 27l-1 1c66.667 59.333 100 120.333 100 183c0 40 -14.333 73 -43 99zM475.003 307.997l-43 -6.00195c1.33301 6.66699 2 13.334 2 20.001c0 22.667 -7 33 -21 31c-10.667 -1.33301 -16 -10.333 -16 -27
c0 -11.333 2.33301 -24.666 7 -39.999l55 7l3 -36l-50 -5l11 -56l-45 -9l-16 130c-5.33301 46.667 11 72.667 49 78c40 5.33301 61.333 -23.667 64 -87zM479.003 192.995c0 -14 -7 -21 -21 -21s-21 7 -21 21s7 21 21 21s21 -7 21 -21zM331.003 362.995l-42.999 -6.00195
c1.33301 6.66699 2 13.334 2 20.001c0 22 -7 32.333 -21 31c-11.333 -1.33301 -17 -10.333 -17 -27c0 -11.333 2.33301 -24.666 7 -39.999l56 7l3 -37l-50 -4l10 -56l-45 -9l-15 130c-5.33301 46.667 11 72.667 49 78c39.333 4.66699 60.666 -24.333 63.999 -87z
M346.004 248.993c0 -14 -7 -21 -21 -21s-21 7 -21 21s7 21 21 21s21 -7 21 -21z" />
    <glyph glyph-name="grave" unicode="`" horiz-adv-x="1020" 
d="M565 603c44 -40.667 65.9961 -88.998 65.9961 -144.998c0 -58 -23.667 -116.833 -71 -176.5s-111.666 -110.834 -192.999 -153.501c-9.33301 -5.33301 -19.333 -8 -30 -8c-92 46 -163.833 99.667 -215.5 161s-77.5 121.666 -77.5 180.999c0 54.667 21.667 102 65 142
c3.33301 2.66699 12 8.66699 26 18c30.667 18.667 63.334 28 98.001 28c36.667 0 71.334 -10.333 104.001 -31c32 20 67.333 30 106 30c48.667 0 89.334 -15.333 122.001 -46zM520.996 555.002c-24 20 -50.667 30 -80 30c-36 0 -70.667 -16.333 -104 -49
c-33.333 32.667 -68 49 -104 49c-29.333 0 -56 -9.66699 -80 -29c-28.667 -26 -43 -59.333 -43 -100c0 -44.667 17.667 -89.667 53 -135c40 -50.667 97.667 -96 173 -136h1c76 40 133.667 85.333 173 136c36 45.333 54 90.333 54 135c0 40 -14.333 73 -43 99z" />
    <glyph glyph-name="a" unicode="a" horiz-adv-x="543" 
d="M635 -55c0.666992 -48.667 -40.666 -72.999 -123.999 -72.999c-45.333 0 -88 8 -128 24c-42 16.667 -66 37 -72 61c-111.333 4 -197 29.667 -257 77c-52.667 41.333 -79 92.333 -79 153c0 66 28.667 121.667 86 167c-12.667 12 -18.334 27.667 -17.001 47
c8 95.333 33 172.666 75 231.999c50 71.333 120.667 107 212 107c94 0 168 -37 222 -111c46.667 -64.667 71 -145.667 73 -243zM349 411.001c-3.33301 18 -7.33301 28.999 -12 32.999c-3.33301 -7.33301 -6 -17.666 -8 -30.999zM570 -56l-8.99707 441
c-1.33301 69.333 -16 129.333 -44 180c-40.667 73.333 -102.667 110 -186 110c-76.667 0 -134.334 -33.333 -173.001 -100c-26.667 -46 -43 -106 -49 -180l154 -13c-0.666992 82.667 24.333 124.667 75 126c32.667 0.666992 55.667 -19 69 -59
c9.33301 -29.333 13.333 -67.333 12 -114c-51.333 10.667 -100.333 16 -147 16c-142.667 0 -218.667 -50.333 -228 -151c-6.66699 -72 31.666 -122.667 114.999 -152c57.333 -20 131.666 -29 222.999 -27l-7 -53zM406.003 231l-6 -89c-38.667 -8 -74.667 -12 -108 -12
c-75.333 0 -112 21.667 -110 65c1.33301 33.333 35 50 101 50c36.667 0 77.667 -4.66699 123 -14z" />
    <glyph glyph-name="b" unicode="b" horiz-adv-x="522" 
d="M626 289c-2 -74.667 -19.999 -139.999 -53.999 -195.999c-66.667 -108 -183.334 -162 -350.001 -162c-40 0 -82.667 3.33301 -128 10c-14.667 2 -27.667 9.66699 -39 23s-17 27 -17 41l3 801c0 24 13.333 42.667 40 56c23.333 12 53 18 89 18
c40.667 0 76 -7.33301 106 -22c33.333 -16 49.333 -37 48 -63l-4 -113c100.667 -8.66699 178.667 -52.334 234 -131.001c50.667 -72 74.667 -159.333 72 -262zM561.001 289.001c3.33301 61.333 -7.66699 120.334 -33 177.001c-48.667 110 -140.667 160.667 -276 152l7 180
l-153 8l-3 -801c42 -6 81.333 -9 118 -9c148.667 0 250 47.333 304 142c27.333 49.333 39.333 99.666 36 150.999zM435.001 305.002c0.666992 -37.333 -4.33398 -69.333 -15.001 -96c-25.333 -63.333 -76 -95 -152 -95c-9.33301 0 -18.666 0.333008 -27.999 1l13 379
c76.667 2.66699 130 -28 160 -92c12.667 -26.667 20 -59 22 -97zM370 303.002c0.666992 54.667 -17.332 92.334 -53.999 113.001l-9 -231c29.333 10 48.666 31 57.999 63c5.33301 17.333 7 35.666 5 54.999z" />
    <glyph glyph-name="c" unicode="c" horiz-adv-x="553" 
d="M652 11c-19.333 -8.66699 -39.3311 -16.668 -59.998 -24.001c-48.667 -18.667 -95.667 -33.334 -141 -44.001c-49.333 -11.333 -95.333 -17 -138 -17c-104 0 -183.333 33.667 -238 101c-48.667 59.333 -73 137 -73 233c0 114.667 31.333 218.667 94 312
c66.667 99.333 147.667 150.333 243 153c92 2.66699 165.333 -29 220 -95c48 -57.333 75.667 -131.666 83 -222.999c5.33301 -29.333 -2.33398 -49 -23.001 -59l-25 -12l-61 -20c-34.667 -10.667 -63 -16 -85 -16c-45.333 0 -68.333 21 -69 63
c-0.666992 55.333 -10.334 83 -29.001 83c-14 0 -27.667 -22 -41 -66c-10.667 -37.333 -16 -70.666 -16 -99.999c0 -21.333 4.5 -34.5 13.5 -39.5s20.167 -7.5 33.5 -7.5c22.667 0 61.667 10.667 117 32s94 32 116 32c29.333 0 49 -14 59 -42l29 -69
c18 -44 27 -80.333 27 -109c0 -33.333 -12 -55.333 -36 -66zM625.002 69.999l-55.001 164.001c-95.333 -43.333 -171.666 -65 -228.999 -65c-73.333 0 -111 34.333 -113 103c-1.33301 37.333 5 79.666 19 126.999c20.667 70 52.334 107.667 95.001 113
c62 8 96 -41.333 102 -148l134 35c-5.33301 52 -16.333 96.333 -33 133c-40.667 88 -108.667 130.667 -204 128c-74 -2 -137.667 -42.333 -191 -121c-50.667 -75.333 -76.667 -160.666 -78 -255.999c-2 -102.667 27 -185.334 87 -248.001c30 -31.333 77 -47 141 -47
c89.333 0 197.666 27.333 324.999 82z" />
    <glyph glyph-name="d" unicode="d" horiz-adv-x="561" 
d="M639 8c0 -28 -18.335 -49.668 -55.002 -65.001c-33.333 -14 -77.666 -21 -132.999 -21c-65.333 0 -129.666 9 -192.999 27c-68.667 19.333 -120.667 45.333 -156 78c-52 48 -81.333 103.667 -88 167c-2.66699 30 -4 53 -4 69c0.666992 105.333 28.667 191 84 257
c58.667 70.667 142.334 109.667 251.001 117c-2.66699 70.667 -4 109.667 -4 117c0 38 5.16699 63.333 15.5 76s32.5 20.334 66.5 23.001c49.333 2.66699 98.666 5 147.999 7c18 1.33301 33.833 -4.5 47.5 -17.5s20.5 -28.5 20.5 -46.5v-788zM573.998 7.99902v788l-170 -10
l8 -213c-131.333 6.66699 -225 -30 -281 -110c-37.333 -53.333 -56 -121 -56 -203c0 -22 1.33301 -41.667 4 -59c6.66699 -40 22 -74.667 46 -104c57.333 -69.333 153 -104 287 -104c49.333 0 103.333 5 162 15zM434.998 131.999
c-12.667 -1.33301 -25 -1.99902 -37 -1.99902c-114 0 -178.333 46.333 -193 139c2.66699 34 11.334 63 26.001 87c35.333 57.333 98.666 84.666 189.999 81.999zM366.998 197l-7.99902 171c-54 -11.333 -83.667 -42.666 -89 -93.999
c9.33301 -44.667 41.666 -70.334 96.999 -77.001z" />
    <glyph glyph-name="e" unicode="e" horiz-adv-x="543" 
d="M653 323c-1.33301 -30 -23.335 -51.666 -66.002 -64.999c48.667 -30 73 -61.667 73 -95c0 -10 -2.66699 -19.667 -8 -29c-33.333 -54 -73.666 -98.667 -120.999 -134c-63.333 -47.333 -132.666 -71 -207.999 -71c-23.333 0 -47 2.33301 -71 7
c-88 16.667 -154.667 61 -200 133c-40 63.333 -60 139.666 -60 228.999c0 32 2.66699 64 8 96c14 80.667 43 150 87 208c52 67.333 115.333 105.333 190 114c15.333 1.33301 30.333 2 45 2c106.667 0 190.667 -40.333 252 -121c56.667 -74.667 83 -166 79 -274z
M595.998 168.001l-121.001 62.001c-5.33301 -12.667 -11.666 -24 -18.999 -34c-17.333 -24.667 -38 -41.334 -62 -50.001c-26 -9.33301 -49.667 -14 -71 -14c-77.333 0 -119.333 53 -126 159l391 34c-1.33301 64 -11 118.667 -29 164c-42 109.333 -119.667 164 -233 164
c-14 0 -28 -0.666992 -42 -2c-76 -8.66699 -135.667 -56 -179 -142c-17.333 -35.333 -31 -77.333 -41 -126c-4.66699 -26 -7 -54.333 -7 -85c0 -68.667 12.333 -127 37 -175c34.667 -67.333 91.334 -108.333 170.001 -123c19.333 -4 38.666 -6 57.999 -6
c112.667 0 204 58 274 174zM409.997 244.002l-136 -12c12 -23.333 31.333 -35 58 -35c36 0 62 15.667 78 47zM412.997 423.002l-197.001 -22c6.66699 66 37.667 103 93 111c5.33301 0.666992 10.333 1 15 1c46.667 0 76.334 -30 89.001 -90z" />
    <glyph glyph-name="f" unicode="f" horiz-adv-x="484" 
d="M581 394c0 -30 -20.332 -51.999 -60.999 -65.999c2 -12.667 5.66699 -52.334 11 -119.001c2 -26.667 -8.66699 -46.334 -32 -59.001c-17.333 -9.33301 -42.333 -15.333 -75 -18c-22 -0.666992 -43.667 -1.66699 -65 -3c15.333 -81.333 23 -130.666 23 -147.999
c0 -30.667 -15 -51.334 -45 -62.001c-2 -0.666992 -58.333 -12 -169 -34c-4.66699 -0.666992 -9 -1 -13 -1c-16.667 0 -31.167 5.33301 -43.5 16s-19.5 24.334 -21.5 41.001l-57 479c-2 19.333 -3 38 -3 56c0 94 27.667 170 83 228c50.667 52.667 112 79 184 79
c53.333 0 102 -15.667 146 -47c47.333 -34.667 82.166 -84 104.499 -148s33.5 -128.667 33.5 -194zM295.001 406.001c4.66699 50.667 2.99902 82 -5.00098 94c-7.33301 -0.666992 -5.66602 -32 5.00098 -94zM516 394.001c-3.33301 62.667 -12 116.331 -26 160.998
c-34.667 108 -95 162 -181 162c-9.33301 0 -19 -0.666992 -29 -2c-123.333 -16 -185 -93 -185 -231c0 -18 1 -36.667 3 -56l57 -479l166 33l-40 206l185 16l-11 134l-204 -26c-17.333 56.667 -26 106.334 -26 149.001c0 62 20 95.333 60 100c52 6 78 -31.667 78 -113
c0 -25.333 -2.33301 -50.666 -7 -75.999z" />
    <glyph glyph-name="g" unicode="g" horiz-adv-x="502" 
d="M601 166c2 -19.333 2.99902 -38 2.99902 -56c0 -94 -27.667 -170 -83 -228c-51.333 -52.667 -113 -79 -185 -79c-53.333 0 -101.666 15.667 -144.999 47c-47.333 34.667 -82.166 84 -104.499 148s-33.5 128.667 -33.5 194c0 17.333 9.33301 33.333 28 48
c-52.667 49.333 -79 106.666 -79 171.999c0 12.667 1 25.334 3 38.001c12.667 76 42 133.167 88 171.5s103 54.833 171 49.5c10.667 18.667 36.167 35.667 76.5 51s79.166 23 116.499 23c59.333 0 91 -19.667 95 -59zM535.999 158
c-6.66699 57.333 -23.001 231.334 -49.001 522.001l-168 -41l10 -45c-30 8.66699 -59 13 -87 13c-96 0 -153.667 -56 -173 -168c-1.33301 -8.66699 -2 -17.334 -2 -26.001c0 -49.333 19.667 -91.666 59 -126.999c42 -38 93.667 -55 155 -51
c55.333 3.33301 95.333 19.333 120 48l1 -3c10 -45.333 15 -87.666 15 -126.999c0 -80 -22.667 -122.667 -68 -128c-52 -6 -78 31.667 -78 113c0 25.333 2.33301 50.666 7 75.999l-160 -22c3.33301 -62.667 12 -116.334 26 -161.001c34.667 -108 95.334 -162 182.001 -162
c8.66699 0 18 0.666992 28 2c123.333 16 185 93 185 231c0 18 -1 36.667 -3 56zM350.998 183.001c-4 -2 -8.33203 -3.66602 -12.999 -4.99902v-2c-5.33301 -46.667 -3.33301 -76.667 6 -90c11.333 1.33301 13.666 33.666 6.99902 96.999zM371.999 384.002
c-35.333 -21.333 -67 -32 -95 -32c-31.333 0 -52 15 -62 45c-2.66699 8 -4 16 -4 24c0 46 43.667 79 131 99zM296.999 421.002l-3 12.999c-12.667 -7.33301 -18.667 -12.666 -18 -15.999c4.66699 0 11.667 1 21 3z" />
    <glyph glyph-name="h" unicode="h" 
d="M639 53c0 -79.333 -3.66504 -128.998 -10.998 -148.998c-8.66699 -24.667 -31 -39.334 -67 -44.001c-58.667 -4 -117.334 -7.66699 -176.001 -11c-18.667 -1.33301 -34.834 4.5 -48.501 17.5s-20.5 29.167 -20.5 48.5v20c-8 -4.66699 -18.333 -7.33398 -31 -8.00098
s-26 -2 -40 -4c-26.667 -2.66699 -50 -4 -70 -4c-82.667 0 -125 22.667 -127 68l-39 810c-1.33301 28.667 21.667 54 69 76c44.667 21.333 92.334 32 143.001 32c77.333 0 114.666 -24.667 111.999 -74l-13 -223c22.667 6.66699 44 10 64 10
c99.333 0 170.333 -74.667 213 -224c28 -96 42 -209.667 42 -341zM570.002 -72.998c2.66699 35.333 4.00098 74.667 4.00098 118c0 129.333 -11.333 236 -34 320c-32.667 123.333 -86.667 185 -162 185c-38 0 -81.333 -16 -130 -48l20 333l-194 -35l39 -810l172 3
c-14 152.667 -19.667 250.334 -17 293.001c1.33301 20 8.16602 38 20.499 54s25.5 24 39.5 24c24 0 38.667 -25.333 44 -76c8 -80.667 11 -205.334 9 -374.001z" />
    <glyph glyph-name="i" unicode="i" horiz-adv-x="343" 
d="M404 380c14 -113.333 21 -200.336 21 -261.003c0 -125.333 -27 -187 -81 -185l-237 8c-53.333 1.33301 -80 72.333 -80 213c0 63.333 6 147 18 251c12.667 110.667 19 168.667 19 174c0.666992 20 14.334 38.333 41.001 55c-51.333 46.667 -77 96.334 -77 149.001
c0 32.667 11.333 62.334 34 89.001c2 2.66699 8.33301 8.33398 19 17.001c22 16 46 24 72 24c18.667 0 36.334 -4.33301 53.001 -13c19.333 15.333 41.666 23 66.999 23c28 0 52 -9.33301 72 -28c36 -28 54 -63.333 54 -106c0 -44.667 -18.333 -89.667 -55 -135
c21.333 -11.333 32.666 -28 33.999 -50s10 -97 26 -225zM303 845.997c-10 8.66699 -20.667 13 -32 13c-21.333 0 -39.333 -16.667 -54 -50c-20.667 26.667 -42 40 -64 40c-16 0 -30 -6.33301 -42 -19c-10 -18 -15 -36 -15 -54c0 -56 43.333 -102.333 130 -139
c70 44.667 105 94 105 148c0 26.667 -9.33301 47 -28 61zM346 -1.00293l-33 603l-184 -24l-20 -571z" />
    <glyph glyph-name="j" unicode="j" horiz-adv-x="563" 
d="M643 98c-2 -80.667 -20.6699 -153.664 -56.0029 -218.997c-55.333 -103.333 -133.333 -155 -234 -155c-60 0 -115.667 20 -167 60c-54 41.333 -93.833 97.833 -119.5 169.5s-38.5 131.5 -38.5 179.5c0 51.333 16.333 80.666 49 87.999l67 22c43.333 12.667 79 19 107 19
c54.667 0 79.667 -23.667 75 -71c-2.66699 -21.333 -4 -42 -4 -62c0 -13.333 0.666992 -26 2 -38v0c3.33301 -36 10 -57.667 20 -65c9.33301 -6.66699 16 4 20 32c4 33.333 1.66699 80.333 -7 141c-1.33301 10 -11.666 62.333 -30.999 157
c-13.333 67.333 -20 118.666 -20 153.999c0 52.667 13.667 84.667 41 96c-1.33301 1.33301 -7.66602 8.33301 -18.999 21c-47.333 50 -71 94.667 -71 134c0 20 6 38.667 18 56c2.66699 3.33301 8.66699 9.66602 18 18.999c23.333 19.333 49.333 29 78 29
c14.667 0 28.667 -2.66699 42 -8c20 16.667 43.333 25 70 25c24.667 0 46.334 -7.33301 65.001 -22c40 -27.333 60 -64 60 -110c0 -60 -29.667 -117.667 -89 -173l92 6c8 -61.333 15.667 -150 23 -266c6.66699 -110.667 9.66699 -183.667 9 -219zM508.997 807.003
c-8.66699 6.66699 -18 10 -28 10c-21.333 0 -38.333 -17 -51 -51c-20 22.667 -40 34 -60 34c-16 0 -30 -7 -42 -21c-5.33301 -13.333 -8 -26.333 -8 -39c0 -58 43.333 -103.667 130 -137c60 44.667 90 92 90 142c0 28 -10.333 48.667 -31 62zM577.997 99.0029
c0.666992 35.333 -2.33496 107.003 -9.00195 215.003c-7.33301 114 -14.666 201 -21.999 261c-31.333 -6 -89.666 -15.667 -174.999 -29l49 -337c4 -30.667 6 -61.334 6 -92.001c0 -106.667 -26.333 -159.334 -79 -158.001c-59.333 1.33301 -89 63.333 -89 186
c0 19.333 0.666992 37 2 53l-169 -40c5.33301 -70.667 17.333 -131.667 36 -183c43.333 -122 114.333 -183.333 213 -184c83.333 -0.666992 146.333 38.666 189 117.999c30.667 56.667 46.667 120 48 190z" />
    <glyph glyph-name="k" unicode="k" horiz-adv-x="598" 
d="M662 570c-9.33301 -95.333 -38.3311 -173.663 -86.998 -234.996c40.667 -40 76 -106.333 106 -199c28.667 -88.667 43 -171.334 43 -248.001c0 -98.667 -24 -149.667 -72 -153c-111.333 -7.33301 -180.666 -11 -207.999 -11c-36 0 -60.333 3.66699 -73 11s-19 21 -19 41
c0 5.33301 4.33301 38.666 13 99.999c8.66699 59.333 12.334 117.333 11.001 174c-1.33301 63.333 -9.33301 108.666 -24 135.999l3 -34c2 -24.667 3 -46.667 3 -66c0 -100.667 -25 -151 -75 -151h-170c-17.333 0 -32.5 6.5 -45.5 19.5s-19.5 28.167 -19.5 45.5v651
c0 26 18.667 47.667 56 65c34.667 14.667 74.667 22 120 22c39.333 0 71.666 -6 96.999 -18c28 -14 41.667 -33.667 41 -59l-5 -166c8 12.667 12.667 37 14 73c1.33301 42.667 3.66602 70 6.99902 82c7.33301 26 23 39 47 39c8 0 17.333 -1.33301 28 -4
c22 -4.66699 44 -9 66 -13c41.333 -8.66699 73.666 -20 96.999 -34c33.333 -18.667 48.666 -41.334 45.999 -68.001zM647.002 -199.997c3.33301 172.667 -14.001 303 -52.001 391c-25.333 57.333 -64.666 103.333 -117.999 138c69.333 53.333 109.333 136 120 248l-161 45
c2 -17.333 3 -34 3 -50c0 -112.667 -50 -170.667 -150 -174l8 265l-184 -12v-651h170l6 262c14 4.66699 27.333 7 40 7c74.667 0 112 -78.667 112 -236c0 -76.667 -8 -159.667 -24 -249z" />
    <glyph glyph-name="l" unicode="l" horiz-adv-x="295" 
d="M370 672l-20.998 -683.999c-0.666992 -23.333 -14.334 -41.666 -41.001 -54.999c-24 -11.333 -54.333 -17 -91 -17c-42 0 -78.667 7.33301 -110 22c-34.667 15.333 -52 35.666 -52 60.999l-7 651c0 27.333 21.333 50.666 64 69.999c39.333 17.333 83 26 131 26
c37.333 0 67.333 -5.66699 90 -17c25.333 -13.333 37.666 -32.333 36.999 -57zM305.002 674.001l-192 -23l7 -651l164 -10z" />
    <glyph glyph-name="m" unicode="m" horiz-adv-x="971" 
d="M1042 -7c2 -29.333 -17.999 -53.333 -59.999 -72c-38.667 -17.333 -83.334 -26 -134.001 -26c-37.333 0 -68.666 5.33301 -93.999 16c-28 11.333 -44 27.666 -48 48.999v-8c0 -24 -13 -42.333 -39 -55c-22.667 -12 -53 -18 -91 -18c-52.667 0 -99.667 10.333 -141 31
c-45.333 22 -65 48.667 -59 80l56 291c8 42.667 12 79.667 12 111c0 51.333 -9.33301 77 -28 77c-12 0 -25 -13 -39 -39c-14.667 -29.333 -26.667 -68.666 -36 -117.999c-1.33301 -12 -2 -24.667 -2 -38c0 -32.667 5.33301 -79.334 16 -140.001
c10.667 -63.333 16.334 -110 17.001 -140c0.666992 -27.333 -19.333 -50.666 -60 -69.999c-38 -17.333 -80 -26 -126 -26c-78.667 0 -118.667 23 -120 69l-18 682c-0.666992 27.333 15.333 48 48 62c27.333 12 61.333 18 102 18s70 -5 88 -15
c39.333 18.667 81.666 28 126.999 28c61.333 0 115.333 -16 162 -48c45.333 34 98.666 51 159.999 51c123.333 0 209 -52 257 -156c34 -73.333 51 -183 51 -329c0 -25.333 -0.5 -60.833 -1.5 -106.5s-1.5 -77.834 -1.5 -96.501c0 -25.333 0.666992 -46.666 2 -63.999z
M749.001 456c-28.667 -56.667 -43 -204.333 -43 -443c3.33301 69.333 16.333 159.333 39 270c6 28 9.33301 61.667 10 101c0 37.333 -2 61.333 -6 72zM977.001 -11.999c-4.66699 68 -7.00098 139.999 -7.00098 215.999c0 66 2 127.333 6 184c4 62.667 -11.667 123 -47 181
c-44.667 74 -109.334 111 -194.001 111c-65.333 0 -117.666 -24.667 -156.999 -74c-42.667 47.333 -97.667 71 -165 71c-58 0 -109 -19.333 -153 -58l-3 38l-144 -6l18 -682l176 23c-0.666992 15.333 -6.33398 56.333 -17.001 123c-10.667 64.667 -16 117.334 -16 158.001
c0 16.667 0.666992 32.667 2 48c8.66699 40.667 19.334 75.334 32.001 104.001c30.667 69.333 69.334 104.666 116.001 105.999c52.667 1.33301 79 -52.667 79 -162c0 -33.333 -2.33301 -66.333 -7 -99l-56 -292l201 -26c0 168 5.66699 303 17 405c12.667 112 42 168 88 168
c49.333 0 74 -46.667 74 -140c0 -36.667 -3.66699 -74.667 -11 -114c-26 -120 -39 -220 -39 -300z" />
    <glyph glyph-name="n" unicode="n" horiz-adv-x="665" 
d="M735 -32c0.666992 -27.333 -18.332 -50 -56.999 -68c-36 -16.667 -77 -25 -123 -25c-36 0 -65.333 6 -88 18c-25.333 12.667 -38 31 -38 55l2 323c0.666992 44 -1.33301 84.667 -6 122c-4 31.333 -9 55 -15 71c-42.667 -10.667 -64 -74.667 -64 -192
c0 -46.667 3.33301 -102 10 -166l14 -108c2.66699 -28.667 -16 -53 -56 -73c-36.667 -18.667 -77.667 -28 -123 -28c-74 0 -112 22.333 -114 67l-29 684c-1.33301 28.667 18 51.667 58 69c34.667 15.333 73.667 23 117 23c39.333 0 65.666 -6.33301 78.999 -19
c34.667 14 71.667 21 111 21c109.333 0 192 -46.667 248 -140c39.333 -65.333 60 -136 62 -212c1.33301 -57.333 5.33301 -198 12 -422zM670.001 -34l-12.0029 423c-1.33301 65.333 -18.666 125 -51.999 179c-44.667 72.667 -109 109 -193 109
c-57.333 0 -107.666 -18.667 -150.999 -56l-4 52l-145 -22l29 -684l163 24c-15.333 149.333 -22.666 257.333 -21.999 324c0 49.333 7.33301 91.666 22 126.999c23.333 58 63 87.667 119 89c33.333 0.666992 55.333 -42.666 66 -129.999c4 -36 6 -79.667 6 -131l-2 -322z
" />
    <glyph glyph-name="o" unicode="o" horiz-adv-x="591" 
d="M675 302c0 -266.667 -117.665 -396.333 -352.998 -389c-120.667 4 -202.334 47.333 -245.001 130c-30 58.667 -45 153 -45 283c0 106 31.833 199.167 95.5 279.5s140.167 120.5 229.5 120.5c91.333 0 167.666 -42.333 228.999 -127c59.333 -82 89 -181 89 -297z
M610.002 302.001c0 103.333 -25.666 189.667 -76.999 259c-48.667 66.667 -107.334 100 -176.001 100c-68 0 -128 -32.333 -180 -97c-53.333 -66.667 -80 -146 -80 -238c0 -115.333 10.333 -195.333 31 -240c32 -68.667 97.333 -104.667 196 -108
c108 -3.33301 184.667 26.334 230 89.001c37.333 51.333 56 129.666 56 234.999zM465.003 319.002c3.33301 -55.333 -7.5 -100.833 -32.5 -136.5s-56.5 -52.834 -94.5 -51.501c-35.333 1.33301 -59.333 16 -72 44s-19 76.333 -19 145
c0.666992 62.667 16.667 110.334 48 143.001c18.667 19.333 40 31.666 64 36.999c22 -0.666992 43.667 -16.667 65 -48c24 -35.333 37.667 -79.666 41 -132.999zM400.003 315.002c-3.33301 54.667 -17.667 93.334 -43 116.001c-29.333 -22.667 -44.333 -60 -45 -112
c0 -58.667 4.33301 -97.334 13 -116.001c4 -2 9.33301 -4.33301 16 -7c13.333 0 26 7.66699 38 23c16 22 23 54 21 96z" />
    <glyph glyph-name="p" unicode="p" horiz-adv-x="586" 
d="M669 406c0 -96.667 -25.335 -176.333 -76.002 -239c-53.333 -66.667 -130.333 -107.334 -231 -122.001c3.33301 -26 5 -47.333 5 -64c0 -33.333 -7.66699 -56.333 -23 -69c-12 -10.667 -35.667 -17.667 -71 -21l-127 -12c-18 -2 -34.333 2.83301 -49 14.5
s-22.667 26.834 -24 45.501l-51 713c-2 30.667 20.333 56 67 76c44.667 18.667 100.334 28 167.001 28c96.667 0 181.334 -19 254.001 -57c86 -44.667 135.667 -107.667 149 -189c6.66699 -41.333 10 -76 10 -104zM594.998 498.001c-8.66699 36 -24.001 67 -46.001 93
c-54 62 -138.333 93 -253 93c-62 0 -131.667 -9.33301 -209 -28l51 -712l169 21l-19 139c120.667 2.66699 207.334 39.667 260.001 111c37.333 50 56 114 56 192c0 32.667 -3 63 -9 91zM473.997 421.001c-0.666992 -34 -7.33398 -63.334 -20.001 -88.001
c-31.333 -59.333 -92.666 -90.666 -183.999 -93.999l-35 303c21.333 3.33301 41.333 5 60 5c99.333 0 159 -42 179 -126zM408.997 412c-6 20 -15.668 35.668 -29.001 47.001c-17.333 14 -41.666 21.667 -72.999 23l20 -170c52.667 15.333 80 48.666 82 99.999z" />
    <glyph glyph-name="q" unicode="q" horiz-adv-x="592" 
d="M833 -192l-224 -167.999c-10.667 -8 -29.334 -12 -56.001 -12c-45.333 0 -89 9 -131 27c-47.333 20.667 -70.333 46 -69 76l12 271c-108.667 7.33301 -192.334 46.333 -251.001 117c-55.333 66 -83.333 151.667 -84 257c0 21.333 1.66699 44.666 5 69.999
c10.667 88.667 64.334 159 161.001 211c82.667 44 175.334 66 278.001 66c58 0 105.5 -8.16699 142.5 -24.5s55.167 -38.5 54.5 -66.5l-23 -659c23.333 0 56.333 -7.33301 99 -22c52 -16.667 87.667 -35.667 107 -57c24.667 -28 17.667 -56.667 -21 -86zM794 -139.999
c-50 32 -99.667 47.999 -149 47.999c-23.333 0 -45 -4 -65 -12l26 738c-58 10 -112 15 -162 15c-135.333 0 -233.333 -35.333 -294 -106c-25.333 -29.333 -42.333 -64.666 -51 -105.999c-2.66699 -16.667 -4 -36 -4 -58c0 -82 18.667 -149.667 56 -203
c56 -80 149.667 -116.667 281 -110l-14 -338l152 -36zM455 507l-14 -305.999c-91.333 -2.66699 -154.666 24.666 -189.999 81.999c-14.667 24 -23.334 53 -26.001 87c14.667 92.667 79 139 193 139c12 0 24.333 -0.666992 37 -2zM387 442.001
c-31.333 -4 -54.999 -13.334 -70.999 -28.001c-12.667 -12 -21.334 -28.333 -26.001 -49c5.33301 -51.333 35 -82.666 89 -93.999z" />
    <glyph glyph-name="r" unicode="r" 
d="M690 363c4.66699 -30.667 -16.499 -58.833 -63.499 -84.5s-95.5 -38.5 -145.5 -38.5c-62 0 -95.667 20.333 -101 61c-6.66699 45.333 -15 94.666 -25 147.999c-1.33301 -8.66699 -2 -17 -2 -25c0 -52 5 -192.333 15 -421c0.666992 -18.667 -5.5 -34.667 -18.5 -48
s-28.5 -20 -46.5 -20h-183c-17.333 0 -32.5 6.5 -45.5 19.5s-19.5 27.833 -19.5 44.5l-7 651c0 28 21 51.333 63 70c37.333 16 78 24 122 24c37.333 0 62.666 -6.33301 75.999 -19c34 14.667 66.667 22 98 22c78.667 0 144.667 -44.667 198 -134
c42 -69.333 70.333 -152.666 85 -249.999zM626.001 353.001c-12 64 -27.335 119.001 -46.002 165.001c-45.333 110 -102.666 165 -171.999 165c-13.333 0 -26.666 -2 -39.999 -6c-37.333 -10.667 -70 -27.334 -98 -50.001l-6 51l-151 -27l7 -651h183
c-10 230 -15 371.333 -15 424c0 37.333 7 63.833 21 79.5s36.333 23.5 67 23.5c32 0 55 -73.667 69 -221z" />
    <glyph glyph-name="s" unicode="s" horiz-adv-x="499" 
d="M61 526c6.66699 58 37 111.001 91 159.001c57.333 51.333 122.333 77 195 77c8.66699 0 17.334 -0.333008 26.001 -1c36 -3.33301 83.833 -23.833 143.5 -61.5s104.834 -77.5 135.501 -119.5c35.333 -48.667 39 -87 11 -115l-43 -50
c-31.333 -34.667 -59.333 -60.334 -84 -77.001c26 -46 39 -100 39 -162c0 -76.667 -19 -142 -57 -196c-42.667 -60.667 -99.334 -91.667 -170.001 -93c-88.667 -1.33301 -165.334 33.667 -230.001 105c-56.667 62.667 -85 126 -85 190c0 48 19.333 74 58 78
c10.667 2.66699 31 6.66699 61 12c-62 52.667 -93 121.667 -93 207c0 15.333 0.666992 31 2 47zM98 196.001c13.333 -104 58.666 -176.001 135.999 -216.001c32.667 -16 70.334 -25.333 113.001 -28c49.333 0 89.666 24.667 120.999 74c28.667 44.667 43 97 43 157
c0 44 -8.33301 82.333 -25 115c-18.667 35.333 -44.667 59 -78 71c-48 16 -84.667 36 -110 60c-22 21.333 -33 42.333 -33 63c0 18 8 32.167 24 42.5s37.333 14.166 64 11.499c18.667 -2.66699 36.334 -9.66699 53.001 -21c38 -26.667 65.667 -73.667 83 -141l128 127
c-95.333 116.667 -178.666 178.334 -249.999 185.001c-60 6 -115 -11.667 -165 -53c-46 -38 -71.333 -79.667 -76 -125c-1.33301 -10.667 -2 -21.667 -2 -33c0 -108.667 49.333 -181 148 -217c35.333 -12.667 62.333 -31 81 -55c16 -21.333 24 -43.666 24 -66.999
c0 -17.333 -4.83301 -32 -14.5 -44s-22.834 -18 -39.501 -18c-38.667 4 -58 34 -58 90c0 12 1.33301 25.333 4 40z" />
    <glyph glyph-name="t" unicode="t" horiz-adv-x="543" 
d="M635 248c-3.33301 -100.667 -25.332 -183.333 -65.999 -248c-50.667 -80.667 -124.667 -121 -222 -121c-94 0 -168 37 -222 111c-46.667 64.667 -71 145.667 -73 243l-9 441c-0.666992 24.667 13.333 44 42 58c25.333 12.667 58.333 19 99 19c50 0 93.333 -9 130 -27
c41.333 -19.333 59.666 -44 54.999 -74l-5 -41c52.667 -1.33301 105.667 -3 159 -5c39.333 -2 65.5 -8 78.5 -18s19.5 -31 19.5 -63c0 -16 -4.33301 -66.667 -13 -152c-0.666992 -4 -1.66699 -8 -3 -12c20 -14 30 -29.333 30 -46c1.33301 -19.333 1.33301 -41 0 -65z
M570.001 308.001l-164.001 14.999c6 -30.667 9 -60.334 9 -89.001c0 -80.667 -25 -121.667 -75 -123c-54 -1.33301 -81 51.334 -81 158.001c0 28 1.66699 55.333 5 82l8 62l271 -35l16 157l-269 13l15 111l-197 16l9 -441c1.33301 -69.333 16 -129.333 44 -180
c40.667 -73.333 102.667 -110 186 -110c104.667 0 173.334 60.667 206.001 182c13.333 50.667 19 111.334 17 182.001zM342 309c-2 10 -2 19.334 0 28.001l-14 3c-2.66699 -19.333 -4 -42.333 -4 -69c0 -63.333 4.66699 -95 14 -95c8 0 12 19 12 57
c0 27.333 -2.66699 52.666 -8 75.999z" />
    <glyph glyph-name="u" unicode="u" horiz-adv-x="576" 
d="M641 275c-23.333 -109.333 -56.6699 -196 -100.003 -260c-61.333 -90.667 -139.666 -131 -234.999 -121c-104.667 10.667 -181.334 61 -230.001 151c-40 73.333 -60 170.333 -60 291c0 112 15.667 225.333 47 340c4.66699 18 20.334 32 47.001 42
c24.667 9.33301 54.334 14 89.001 14c76 0 129 -16.667 159 -50c24.667 31.333 73.334 47 146.001 47c46.667 0 86.667 -7.33301 120 -22c36.667 -16 55 -37.333 55 -64c0 -38.667 -1.33301 -77 -4 -115c-6.66699 -92.667 -18 -177 -34 -253zM320.996 207
c25.333 24.667 38 95.666 38 212.999c0 43.333 -1.66699 90 -5 140c-32 -126 -48 -221.333 -48 -286c0 -33.333 5 -55.666 15 -66.999zM613.996 642.999l-202 5c8.66699 -80 13 -153 13 -219c0 -192 -36.333 -287 -109 -285c-48.667 1.33301 -73 47.333 -73 138
c0 88.667 22 209 66 361l-183 15c-30 -116 -45 -226.333 -45 -331c0 -229.333 77 -352.333 231 -369c127.333 -13.333 216 97 266 331c20.667 97.333 32.667 215.333 36 354z" />
    <glyph glyph-name="v" unicode="v" horiz-adv-x="540" 
d="M602 635c33.333 -6.66699 49.9971 -30.667 49.9971 -72c0 -36.667 -13.333 -90 -40 -160c-16.667 -42.667 -47 -112.334 -91 -209.001c-46 -100 -78.333 -173.667 -97 -221c-6 -16 -22 -28.667 -48 -38c-23.333 -8.66699 -50.666 -13 -81.999 -13
c-35.333 0 -65.333 5.33301 -90 16c-28 12 -43.667 28.667 -47 50c-3.33301 18.667 -24.666 120.334 -63.999 305.001c-29.333 140 -44 242.667 -44 308c0 86.667 23.333 129.667 70 129l181 -1c11.333 -4 21 -9 29 -15c18.667 -14.667 29.334 -35 32.001 -61l3 -41
c12 37.333 40.333 56 85 56c22 0 50 -4.66699 84 -14c22.667 -6.66699 45.667 -13 69 -19zM588.997 571l-159 32l-105 -318l-31 379c-32 0 -90.333 0.333008 -175 1l102 -667l142 -2z" />
    <glyph glyph-name="w" unicode="w" horiz-adv-x="839" 
d="M920 724c38 -4.66699 57 -36.332 57 -94.999c0 -65.333 -26 -174 -78 -326l-111 -322c-9.33301 -31.333 -39 -47 -89 -47c-18 0 -41.667 2.33301 -71 7c-32 4.66699 -51 7.33398 -57 8.00098c-9.33301 1.33301 -17.666 4 -24.999 8c-18 9.33301 -30 24.666 -36 45.999
l-8 24c-3.33301 12.667 -14 48.334 -32 107.001c-32 -90.667 -48.667 -137.334 -50 -140.001c-12 -24.667 -31 -39.334 -57 -44.001c-8.66699 -1.33301 -57 -3.33301 -145 -6c-14 0 -27.833 5.5 -41.5 16.5s-21.834 23 -24.501 36s-28.334 117.833 -77.001 314.5
c-35.333 142.667 -53 246.334 -53 311.001c0 76 22.333 114.667 67 116l180 4c11.333 -2.66699 21 -7 29 -13c20 -14.667 31.667 -34.667 35 -60l5 -41c12 43.333 50 65 114 65c40 0 77.333 -9.33301 112 -28c37.333 -20.667 61 -47.334 71 -80.001
c16.667 69.333 30.334 113 41.001 131c12.667 22 32.667 33 60 33c14 0 38 -2.66699 72 -8c50 -8 87.333 -13.667 112 -17zM912 660.002l-186 22l-85 -345l-77 258l-161 26l-93 -321l-44 378c-32 -1.33301 -90.667 -3 -176 -5l126 -664l142 4l117 331
c64 -214 97.333 -324.333 100 -331l150 -14z" />
    <glyph glyph-name="x" unicode="x" horiz-adv-x="704" 
d="M172 714c-34 -7.33301 -50.9961 -25.666 -50.9961 -54.999c0 -28.667 17.333 -72 52 -130l90 -147l-182 -203c-32.667 -40 -39.334 -74 -20.001 -102c11.333 -17.333 64.666 -65.333 159.999 -144c10.667 -9.33301 22.667 -14 36 -14c35.333 0 77.666 31 126.999 93
l64 95l87 -175c19.333 -32 43.333 -48 72 -48c14 0 74.667 12.333 182 37c32.667 7.33301 49 26 49 56c0 30.667 -20.667 81 -62 151l-119 198l174 218c30 43.333 31 75.666 3 96.999c-18.667 14 -88.334 43 -209.001 87c-6 2.66699 -12.333 4 -19 4
c-23.333 0 -47.333 -15.667 -72 -47l-45 -67c-30.667 58.667 -52 95.667 -64 111c-16.667 20.667 -36 31 -58 31c-14 0 -38 -4.66699 -72 -14c-59.333 -16 -100.333 -26.667 -123 -32zM113.004 106l229 268l-156 277l190 43l104 -201l123 174l184 -67l-208 -268l195 -348
l-169 -39l-145 279l-198 -241z" />
    <glyph glyph-name="y" unicode="y" horiz-adv-x="543" 
d="M622 206c-10.667 -76.667 -37.666 -145.001 -80.999 -205.001c-64.667 -90 -151.667 -128.333 -261 -115c-74 9.33301 -135.333 46.666 -184 111.999c-43.333 58.667 -65 119 -65 181c0 62.667 23 97 69 103c-48 55.333 -72 134 -72 236
c0 53.333 6.66699 106.666 20 159.999c4.66699 18.667 20.667 33.334 48 44.001c25.333 10 55.333 15 90 15c40.667 0 75.334 -6.66699 104.001 -20c32.667 -15.333 49 -35.666 49 -60.999c0 -6.66699 -1.33301 -13.667 -4 -21c-16.667 -52.667 -25 -101.667 -25 -147
c0 -9.33301 0.333008 -18 1 -26c11.333 -0.666992 25.666 1.33301 42.999 6c-0.666992 20 -1.33398 45.667 -2.00098 77c-0.666992 28 -1 47.333 -1 58c0 41.333 4.83301 69 14.5 83s31.5 23.333 65.5 28c50.667 4 101.334 8.33301 152.001 13
c20 2 37.167 -3.66699 51.5 -17s20.5 -30 18.5 -50c-2.66699 -63.333 -5.33398 -121.666 -8.00098 -174.999c-7.33301 -128.667 -15 -221.667 -23 -279zM558.001 214.999c11.333 84 21.668 232.999 31.001 446.999l-172 -15l2 -223c-36 -18 -71.333 -27 -106 -27
c-36 0 -57 13.667 -63 41c-3.33301 14.667 -5 31.334 -5 50.001c0 48.667 9.33301 104.334 28 167.001l-162 8c-11.333 -50.667 -17 -100.667 -17 -150c0 -160.667 62 -241 186 -241c40 0 86 9 138 27c-8 -131.333 -42.333 -192.333 -103 -183c-41.333 6 -62 38 -62 96
c0 7.33301 0.333008 15.333 1 24l-153 -19c3.33301 -162.667 65.666 -251.334 186.999 -266.001c10 -1.33301 20 -2 30 -2c73.333 0 132.666 33.333 177.999 100c32.667 48.667 53.334 104 62.001 166zM338.003 211.998c-6.66699 -1.33301 -13.333 -2.33301 -20 -3
c0 -11.333 1.33301 -20.333 4 -27c6.66699 6 12 16 16 30z" />
    <glyph glyph-name="z" unicode="z" horiz-adv-x="580" 
d="M662 377l-183.998 -180.999c38 -2.66699 63.667 -6.33398 77 -11.001c28.667 -10.667 41.667 -31.667 39 -63l-15 -166c-2.66699 -26.667 -25.334 -47 -68.001 -61c-38.667 -12.667 -88.334 -19 -149.001 -19c-78 0 -148.667 9.33301 -212 28
c-68.667 20 -104.667 45.333 -108 76c-14 56 -21 103.667 -21 143s7.33301 65.333 22 78l267 231c-64.667 0.666992 -129 1.66699 -193 3c-35.333 4 -56.333 21 -63 51c-3.33301 14.667 -6 74.667 -8 180c-0.666992 50 51.333 75 156 75c45.333 0 113.333 -5.33301 204 -16
c106 -12.667 174 -19.667 204 -21c27.333 -2 48.333 -23 63 -63c12 -35.333 18 -78 18 -128c0 -72 -9.66699 -117.333 -29 -136zM617.002 423.001l-10 216l-496 28l3 -167l367 -6l-396 -343l21 -163l408 -27l15 167l-201 13z" />
    <glyph glyph-name="braceleft" unicode="{" 
d="M523 476c28.667 -26 43.001 -59 43.001 -99c0 -62.667 -33.333 -123.667 -100 -183l1 -1c0 -10.667 -3.83301 -19.667 -11.5 -27s-16.834 -11 -27.501 -11c-3.33301 0 -6.33301 0.333008 -9 1c-24 -17.333 -50.667 -33.666 -80 -48.999h-1
c-75.333 39.333 -133 84.666 -173 135.999c-35.333 45.333 -53 90 -53 134c0 40.667 14.333 74 43 100c24 20 50.667 30 80 30c36 0 70.667 -16.667 104 -50c33.333 32.667 68 49 104 49c29.333 0 56 -10 80 -30zM445.001 308c-2.66699 63.333 -24 92.335 -64 87.002
c-38 -5.33301 -54.333 -31.333 -49 -78l16 -130l45 9l-11 56l50 5l-3 36l-55 -7c-4.66699 15.333 -7 28.666 -7 39.999c0 16.667 5.33301 25.667 16 27c14 2 21 -8.33301 21 -31c0 -6.66699 -0.666992 -13.334 -2 -20.001zM449.001 193.002c0 14 -7 21 -21 21
s-21 -7 -21 -21s7 -21 21 -21s21 7 21 21zM301.001 363.002c-3.33301 63.333 -24.667 92.335 -64 87.002c-38 -5.33301 -54.333 -31.333 -49 -78l15 -130l45 9l-10 56l50 4l-3 37l-56 -7c-4.66699 15.333 -7 28.666 -7 39.999c0 16.667 5.66699 25.667 17 27
c14 1.33301 21 -9 21 -31c0 -6.66699 -0.666992 -13.334 -2 -20.001zM316 249.004c0 14 -7 21 -21 21s-21 -7 -21 -21s7 -21 21 -21s21 7 21 21z" />
    <glyph glyph-name="bar" unicode="|" horiz-adv-x="629" 
d="M573 498c36.667 -33.333 55.0039 -75.6689 55.0039 -127.002c0 -72 -34.333 -136 -103 -192c-2.66699 -15.333 -10.334 -28.166 -23.001 -38.499s-27.334 -15.5 -44.001 -15.5c-20.667 -14.667 -48 -30.667 -82 -48h-15c-80.667 42 -143.334 91 -188.001 147
c-41.333 52.667 -62 104.334 -62 155.001c0 47.333 18 87.333 54 120c30 26 63.333 39 100 39c36 0 70.667 -13.667 104 -41c33.333 26.667 67.666 40 102.999 40c37.333 0 71 -13 101 -39zM553.004 475.997c-24 20 -50.668 30 -80.001 30c-36 0 -70.667 -16.333 -104 -49
c-33.333 33.333 -68 50 -104 50c-29.333 0 -56 -10 -80 -30c-28.667 -26 -43 -59.333 -43 -100c0 -44 17.667 -88.667 53 -134c40 -51.333 97.667 -96.666 173 -135.999h1c29.333 15.333 56 31.666 80 48.999c2.66699 -0.666992 5.66699 -1 9 -1
c10.667 0 19.834 3.66699 27.501 11s11.5 16.333 11.5 27l-1 1c66.667 59.333 100 120.333 100 183c0 40 -14.333 73 -43 99zM475.003 307.997l-43 -6.00195c1.33301 6.66699 2 13.334 2 20.001c0 22.667 -7 33 -21 31c-10.667 -1.33301 -16 -10.333 -16 -27
c0 -11.333 2.33301 -24.666 7 -39.999l55 7l3 -36l-50 -5l11 -56l-45 -9l-16 130c-5.33301 46.667 11 72.667 49 78c40 5.33301 61.333 -23.667 64 -87zM479.003 192.995c0 -14 -7 -21 -21 -21s-21 7 -21 21s7 21 21 21s21 -7 21 -21zM331.003 362.995l-42.999 -6.00195
c1.33301 6.66699 2 13.334 2 20.001c0 22 -7 32.333 -21 31c-11.333 -1.33301 -17 -10.333 -17 -27c0 -11.333 2.33301 -24.666 7 -39.999l56 7l3 -37l-50 -4l10 -56l-45 -9l-15 130c-5.33301 46.667 11 72.667 49 78c39.333 4.66699 60.666 -24.333 63.999 -87z
M346.004 248.993c0 -14 -7 -21 -21 -21s-21 7 -21 21s7 21 21 21s21 -7 21 -21z" />
    <glyph glyph-name="braceright" unicode="}" 
d="M523 476c28.667 -26 43.001 -59 43.001 -99c0 -62.667 -33.333 -123.667 -100 -183l1 -1c0 -10.667 -3.83301 -19.667 -11.5 -27s-16.834 -11 -27.501 -11c-3.33301 0 -6.33301 0.333008 -9 1c-24 -17.333 -50.667 -33.666 -80 -48.999h-1
c-75.333 39.333 -133 84.666 -173 135.999c-35.333 45.333 -53 90 -53 134c0 40.667 14.333 74 43 100c24 20 50.667 30 80 30c36 0 70.667 -16.667 104 -50c33.333 32.667 68 49 104 49c29.333 0 56 -10 80 -30zM445.001 308c-2.66699 63.333 -24 92.335 -64 87.002
c-38 -5.33301 -54.333 -31.333 -49 -78l16 -130l45 9l-11 56l50 5l-3 36l-55 -7c-4.66699 15.333 -7 28.666 -7 39.999c0 16.667 5.33301 25.667 16 27c14 2 21 -8.33301 21 -31c0 -6.66699 -0.666992 -13.334 -2 -20.001zM449.001 193.002c0 14 -7 21 -21 21
s-21 -7 -21 -21s7 -21 21 -21s21 7 21 21zM301.001 363.002c-3.33301 63.333 -24.667 92.335 -64 87.002c-38 -5.33301 -54.333 -31.333 -49 -78l15 -130l45 9l-10 56l50 4l-3 37l-56 -7c-4.66699 15.333 -7 28.666 -7 39.999c0 16.667 5.66699 25.667 17 27
c14 1.33301 21 -9 21 -31c0 -6.66699 -0.666992 -13.334 -2 -20.001zM316 249.004c0 14 -7 21 -21 21s-21 -7 -21 -21s7 -21 21 -21s21 7 21 21z" />
    <glyph glyph-name="asciitilde" unicode="~" horiz-adv-x="629" 
d="M573 498c36.667 -33.333 55.0039 -75.6689 55.0039 -127.002c0 -72 -34.333 -136 -103 -192c-2.66699 -15.333 -10.334 -28.166 -23.001 -38.499s-27.334 -15.5 -44.001 -15.5c-20.667 -14.667 -48 -30.667 -82 -48h-15c-80.667 42 -143.334 91 -188.001 147
c-41.333 52.667 -62 104.334 -62 155.001c0 47.333 18 87.333 54 120c30 26 63.333 39 100 39c36 0 70.667 -13.667 104 -41c33.333 26.667 67.666 40 102.999 40c37.333 0 71 -13 101 -39zM553.004 475.997c-24 20 -50.668 30 -80.001 30c-36 0 -70.667 -16.333 -104 -49
c-33.333 33.333 -68 50 -104 50c-29.333 0 -56 -10 -80 -30c-28.667 -26 -43 -59.333 -43 -100c0 -44 17.667 -88.667 53 -134c40 -51.333 97.667 -96.666 173 -135.999h1c29.333 15.333 56 31.666 80 48.999c2.66699 -0.666992 5.66699 -1 9 -1
c10.667 0 19.834 3.66699 27.501 11s11.5 16.333 11.5 27l-1 1c66.667 59.333 100 120.333 100 183c0 40 -14.333 73 -43 99zM475.003 307.997l-43 -6.00195c1.33301 6.66699 2 13.334 2 20.001c0 22.667 -7 33 -21 31c-10.667 -1.33301 -16 -10.333 -16 -27
c0 -11.333 2.33301 -24.666 7 -39.999l55 7l3 -36l-50 -5l11 -56l-45 -9l-16 130c-5.33301 46.667 11 72.667 49 78c40 5.33301 61.333 -23.667 64 -87zM479.003 192.995c0 -14 -7 -21 -21 -21s-21 7 -21 21s7 21 21 21s21 -7 21 -21zM331.003 362.995l-42.999 -6.00195
c1.33301 6.66699 2 13.334 2 20.001c0 22 -7 32.333 -21 31c-11.333 -1.33301 -17 -10.333 -17 -27c0 -11.333 2.33301 -24.666 7 -39.999l56 7l3 -37l-50 -4l10 -56l-45 -9l-15 130c-5.33301 46.667 11 72.667 49 78c39.333 4.66699 60.666 -24.333 63.999 -87z
M346.004 248.993c0 -14 -7 -21 -21 -21s-21 7 -21 21s7 21 21 21s21 -7 21 -21z" />
    <glyph glyph-name="Odieresis" unicode="&#xd6;" horiz-adv-x="1000" 
 />
    <glyph glyph-name="aacute" unicode="&#xe1;" horiz-adv-x="1000" 
 />
    <glyph glyph-name="egrave" unicode="&#xe8;" horiz-adv-x="1000" 
 />
    <glyph glyph-name=".null" horiz-adv-x="0" 
 />
    <glyph glyph-name="nonmarkingreturn" horiz-adv-x="302" 
 />
  </font>
</defs>
</svg>
